<?xml version="1.0" encoding="UTF-8"?>
<svg width="1146px" height="3238px" viewBox="0 0 1146 3238" version="1.1" xmlns="http://www.w3.org/2000/svg" xmlns:xlink="http://www.w3.org/1999/xlink">
    <!-- Generator: Sketch 53.2 (72643) - https://sketchapp.com -->
    <title>background logo shape</title>
    <desc>Created with Sketch.</desc>
    <defs>
        <polygon id="path-1" points="0 2.27373675e-13 3836.07447 2.27373675e-13 3836.07447 1385.97309 0 1385.97309"></polygon>
    </defs>
    <g id="Page-1" stroke="none" stroke-width="1" fill="none" fill-rule="evenodd" opacity="0.8">
        <g id="CKD-Home-Process">
            <g id="large-shape" transform="translate(-240.000000, -599.000000)">
                <g id="Group-10">
                    <g id="Group-3-Copy" transform="translate(693.000000, 1918.000000) rotate(90.000000) translate(-693.000000, -1918.000000) translate(-1225.037234, 1225.013453)">
                        <mask id="mask-2" fill="white">
                            <use xlink:href="#path-1"></use>
                        </mask>
                        <g id="Clip-2"></g>
                        <path d="M3549.16605,408.335536 C3406.958,408.335536 3288.64676,510.319051 3266.14271,643.621283 L2477.74321,643.621283 C2432.0998,643.621283 2413.45637,614.507098 2381.76499,548.035699 C2355.47361,492.826578 2313.42205,424.126686 2241.8049,424.126686 C2155.55156,424.126686 2138.08098,557.165332 2113.84209,741.315548 C2111.17874,761.683496 2107.53802,802.898639 2104.19051,826.309798 C2101.11178,847.588314 2092.09549,853.770585 2088.06382,825.974326 C2085.54708,808.697513 2076.43306,706.019091 2072.79234,681.673403 C2044.88828,495.845827 1949.96074,321.544113 1805.74907,194.999248 C1650.17541,58.4621077 1453.62531,-10.3575954 1252.28608,1.26411627 C1059.25453,12.3826198 873.406681,102.001593 742.340701,247.165159 C639.765201,360.794348 577.921802,498.481679 562.332672,643.621283 L284.464976,643.621283 C264.81974,587.14216 210.306653,546.358339 146.166422,546.358339 C65.5818585,546.358339 0,610.673131 0,689.748695 C0,768.800297 65.5818585,833.115089 146.166422,833.115089 C211.552806,833.115089 267.043268,790.797681 285.662261,732.617236 L558.569778,732.617236 C558.789688,741.842718 559.058466,751.092163 559.644891,760.341608 C571.104612,939.33993 657.015869,1110.02334 795.387726,1228.61272 C914.774075,1330.95567 1061.89344,1385.97309 1213.82637,1385.97309 C1228.5603,1385.97309 1243.36753,1385.44592 1258.17476,1384.39158 C1417.87783,1373.15327 1570.56823,1297.02507 1677.12653,1175.56021 C1781.58348,1056.49158 1832.38254,906.799138 1820.16535,754.08745 C1808.58346,608.99577 1736.6731,471.83561 1622.93109,377.831538 C1516.54383,289.889926 1384.3783,248.12365 1250.77115,260.24857 C1124.32326,271.678583 1004.81474,334.435827 922.837418,432.345752 C870.49899,494.911297 836.901727,567.445156 823.7316,643.621283 L653.643926,643.621283 C668.915409,520.23944 722.622162,403.25553 810.292694,306.160322 C925.451896,178.585078 1088.50247,99.8449863 1257.58834,90.0923334 C1434.63981,79.9083592 1607.80621,140.700694 1745.24956,261.326873 C1870.35355,371.122096 1953.79694,521.17397 1980.96796,681.96095 C1984.07113,700.340028 1996.82587,808.074494 2008.5055,882.645147 C2018.5236,946.720316 2037.75345,980.890545 2045.54801,990.739047 C2066.63488,1017.38512 2087.81948,1017.38512 2098.64391,1017.38512 C2169.03934,1017.38512 2181.40313,923.381044 2203.83388,752.721599 C2211.72619,692.815868 2226.36238,593.396318 2240.87639,540.343803 C2247.88906,514.632264 2262.42751,521.653215 2267.97411,528.650205 C2277.40578,540.559464 2287.05736,559.417788 2299.56776,585.704422 C2329.13335,647.694872 2369.59667,732.617236 2477.74321,732.617236 L3265.55628,732.617236 C3286.66758,867.524941 3405.80959,971.137892 3549.16605,971.137892 C3707.37862,971.137892 3836.07447,844.904537 3836.07447,689.748695 C3836.07447,534.568891 3707.37862,408.335536 3549.16605,408.335536 L3549.16605,408.335536 Z M146.166422,744.119136 C115.623455,744.119136 90.7248288,719.725523 90.7248288,689.748695 C90.7248288,659.747905 115.623455,635.354292 146.166422,635.354292 C176.758258,635.354292 201.63245,659.747905 201.63245,689.748695 C201.63245,719.725523 176.758258,744.119136 146.166422,744.119136 L146.166422,744.119136 Z M1292.21184,974.5645 C1337.97742,974.5645 1381.22627,963.949204 1419.66153,945.18673 C1383.86518,989.540932 1330.06069,1025.43645 1249.10961,1037.0342 C1173.8273,1046.57119 1097.88527,1025.10097 1035.30884,976.577332 C965.060016,922.08708 919.392172,840.591324 910.058241,752.937259 C909.32521,746.155931 908.860957,739.374602 908.54331,732.617236 L1008.16225,732.617236 C1027.80749,869.154377 1147.65809,974.5645 1292.21184,974.5645 L1292.21184,974.5645 Z M1096.02826,693.151341 C1096.02826,587.046311 1184.04087,500.734134 1292.21184,500.734134 C1400.40725,500.734134 1488.41986,587.046311 1488.41986,693.151341 C1488.41986,799.25637 1400.40725,885.592509 1292.21184,885.592509 C1184.04087,885.592509 1096.02826,799.25637 1096.02826,693.151341 L1096.02826,693.151341 Z M817.794047,732.617236 C818.160562,742.465738 818.746987,752.31424 819.797665,762.210667 C831.672771,873.539476 889.704408,977.128465 979.036478,1046.40345 C1060.9405,1109.90353 1160.99926,1137.91545 1261.49784,1125.19147 C1462.6416,1096.36483 1545.05874,950.506358 1570.78814,821.613189 C1580.41528,773.448982 1602.67499,627.854094 1523.26328,526.445674 C1469.60539,457.937481 1386.87061,411.762144 1292.21184,411.762144 C1151.24994,411.762144 1033.76947,512.020374 1009.84822,643.621283 L916.117966,643.621283 C928.286284,588.004802 954.260023,535.072099 992.988505,488.824875 C1059.64548,409.150254 1156.64994,358.134534 1259.10327,348.861127 C1368.34935,338.9647 1476.81353,373.422476 1564.45963,445.860485 C1659.77812,524.648502 1720.00885,639.499768 1729.7093,761.036514 C1740.02061,889.953646 1696.91837,1016.54644 1608.34377,1117.52353 C1517.4479,1221.16045 1387.4326,1286.0743 1251.69965,1295.63525 C1108.53866,1305.72338 967.698928,1258.1103 855.105335,1161.61415 C734.814914,1058.52837 660.143469,910.249708 650.198679,754.782356 C649.734426,747.378008 649.563385,739.997622 649.343476,732.617236 L817.794047,732.617236 Z M3549.16605,882.141939 C3456.02222,882.141939 3378.00327,818.114694 3358.04038,732.617236 L3409.67022,732.617236 C3428.28921,790.797681 3483.77967,833.115089 3549.16605,833.115089 C3629.75062,833.115089 3695.33248,768.800297 3695.33248,689.748695 C3695.33248,610.673131 3629.75062,546.358339 3549.16605,546.358339 C3485.02582,546.358339 3430.51274,587.14216 3410.8675,643.621283 L3358.89559,643.621283 C3380.05576,559.75326 3457.21951,497.307527 3549.16605,497.307527 C3657.33703,497.307527 3745.34964,583.643665 3745.34964,689.748695 C3745.34964,795.829762 3657.33703,882.141939 3549.16605,882.141939 L3549.16605,882.141939 Z M3493.70003,689.748695 C3493.70003,659.747905 3518.59865,635.354292 3549.16605,635.354292 C3579.73346,635.354292 3604.60765,659.747905 3604.60765,689.748695 C3604.60765,719.725523 3579.73346,744.119136 3549.16605,744.119136 C3518.59865,744.119136 3493.70003,719.725523 3493.70003,689.748695 L3493.70003,689.748695 Z" id="Fill-1" fill="#1B1640" mask="url(#mask-2)"></path>
                    </g>
                </g>
            </g>
        </g>
    </g>
</svg>