<?xml version="1.0" encoding="UTF-8"?>
<svg width="150px" height="115px" viewBox="0 0 150 115" version="1.1" xmlns="http://www.w3.org/2000/svg" xmlns:xlink="http://www.w3.org/1999/xlink">
    <!-- Generator: Sketch 53.2 (72643) - https://sketchapp.com -->
    <title>CKD-logo</title>
    <desc>Created with Sketch.</desc>
    <defs>
        <polygon id="path-1" points="0 0.045220785 149.995127 0.045220785 149.995127 53.6796189 0 53.6796189"></polygon>
    </defs>
    <g id="Page-1" stroke="none" stroke-width="1" fill="none" fill-rule="evenodd">
        <g id="CKD-Home-Process" transform="translate(-729.000000, -35.000000)">
            <g id="CKD-logo" transform="translate(729.000000, 35.000000)">
                <g>
                    <g id="Group-3">
                        <mask id="mask-2" fill="white">
                            <use xlink:href="#path-1"></use>
                        </mask>
                        <g id="Clip-2"></g>
                        <path d="M138.776656,15.8468263 C133.216146,15.8468263 128.590032,19.7934025 127.710096,24.9519561 L96.882707,24.9519561 C95.0979936,24.9519561 94.3690127,23.8252901 93.1298408,21.2529681 C92.1018153,19.1164757 90.4575478,16.457915 87.6572293,16.457915 C84.2846178,16.457915 83.6014968,21.6062683 82.6537261,28.7325462 C82.549586,29.5207487 82.4072293,31.1156996 82.2763376,32.0216688 C82.1559554,32.8451086 81.8034076,33.0843512 81.6457643,32.0086867 C81.5473567,31.3401055 81.1909873,27.3666376 81.0486306,26.4245038 C79.9575478,19.2333151 76.2457643,12.4881563 70.6069108,7.59110058 C64.5237898,2.30736195 56.8384395,-0.355835192 48.965828,0.0939038805 C41.4180573,0.524169715 34.1511783,3.9922607 29.0263376,9.60982627 C25.0155096,14.0070689 22.5973567,19.3353178 21.9878025,24.9519561 L11.1228344,24.9519561 C10.3546815,22.7663169 8.22315287,21.1880573 5.71519108,21.1880573 C2.56423567,21.1880573 -9.55414013e-05,23.6769226 -9.55414013e-05,26.7370029 C-9.55414013e-05,29.7961559 2.56423567,32.2850212 5.71519108,32.2850212 C8.27187898,32.2850212 10.4416242,30.6474146 11.1696497,28.3959373 L21.8406688,28.3959373 C21.8492675,28.7529467 21.8597771,29.1108834 21.882707,29.46882 C22.3307962,36.395729 25.6900318,43.000866 31.1005414,47.5900591 C35.7686943,51.5505448 41.521242,53.6796189 47.4620064,53.6796189 C48.038121,53.6796189 48.6171019,53.6592183 49.1960828,53.6184173 C55.4406688,53.1835149 61.411051,50.2374922 65.5776115,45.5370234 C69.6620064,40.9292843 71.6483121,35.1364596 71.1706051,29.2267955 C70.7177389,23.6120118 67.9059554,18.3041635 63.4585032,14.6663771 C59.2986306,11.2631969 54.1307962,9.64691815 48.9065924,10.1161305 C43.9623248,10.5584512 39.2893949,12.9870421 36.0839809,16.7759779 C34.0374841,19.1971505 32.7237898,22.0040787 32.2088217,24.9519561 L25.5581847,24.9519561 C26.1553185,20.1773035 28.2553185,15.6502393 31.6833439,11.8928316 C36.1862102,6.9559021 42.5616879,3.90880397 49.1731529,3.53139407 C56.0960828,3.13729282 62.8671019,5.48984545 68.2413057,10.1578588 C73.1330255,14.4067339 76.3957643,20.2134681 77.4581847,26.4356314 C77.5795223,27.1468682 78.0782484,31.3159958 78.5349363,34.2017442 C78.9266561,36.6813365 79.6785669,38.0036621 79.9833439,38.3847812 C80.8078662,39.4159355 81.6362102,39.4159355 82.0594586,39.4159355 C84.8120064,39.4159355 85.2954459,35.7781492 86.1725159,29.1739396 C86.4811146,26.8556969 87.0534076,23.0083414 87.6209236,20.9553058 C87.8951274,19.960316 88.4635987,20.232014 88.6804777,20.5027848 C89.0492675,20.9636514 89.4266561,21.6934342 89.915828,22.7106791 C91.071879,25.1095966 92.6540446,28.3959373 96.882707,28.3959373 L127.687166,28.3959373 C128.512643,33.6166198 133.171242,37.6262522 138.776656,37.6262522 C144.962962,37.6262522 149.995127,32.7412513 149.995127,26.7370029 C149.995127,20.7318272 144.962962,15.8468263 138.776656,15.8468263 L138.776656,15.8468263 Z M5.71519108,28.8410399 C4.52092357,28.8410399 3.54735669,27.8970515 3.54735669,26.7370029 C3.54735669,25.576027 4.52092357,24.6320386 5.71519108,24.6320386 C6.91136943,24.6320386 7.88398089,25.576027 7.88398089,26.7370029 C7.88398089,27.8970515 6.91136943,28.8410399 5.71519108,28.8410399 L5.71519108,28.8410399 Z M50.5269745,37.7588557 C52.316465,37.7588557 54.0075478,37.3480631 55.510414,36.6219895 C54.1107325,38.3384164 52.0069108,39.7275074 48.8416242,40.1763191 C45.8979936,40.5453834 42.9285669,39.7145252 40.4817516,37.8367487 C37.7349363,35.7280752 35.9492675,32.5743379 35.5842994,29.1822852 C35.5556369,28.9198602 35.5374841,28.6574351 35.5250637,28.3959373 L39.4202866,28.3959373 C40.1884395,33.679676 44.8747452,37.7588557 50.5269745,37.7588557 L50.5269745,37.7588557 Z M42.8559554,26.8686791 C42.8559554,22.7626077 46.2973567,19.4224837 50.5269745,19.4224837 C54.7575478,19.4224837 58.198949,22.7626077 58.198949,26.8686791 C58.198949,30.9747504 54.7575478,34.3158017 50.5269745,34.3158017 C46.2973567,34.3158017 42.8559554,30.9747504 42.8559554,26.8686791 L42.8559554,26.8686791 Z M31.9766561,28.3959373 C31.9909873,28.7770564 32.0139172,29.1581755 32.055,29.5411492 C32.5193312,33.8493713 34.7884395,37.8580765 38.2814331,40.5388923 C41.4839809,42.9962295 45.3964013,44.0802397 49.3260191,43.587845 C57.1909873,42.4723066 60.4135987,36.8278495 61.4196497,31.8399186 C61.7960828,29.9760515 62.666465,24.3417946 59.5613694,20.4174735 C57.4632803,17.7663312 54.2282484,15.9794298 50.5269745,15.9794298 C45.0151911,15.9794298 40.4215605,19.8592406 39.4862102,24.9519561 L35.821242,24.9519561 C36.2970382,22.7996996 37.3126433,20.7513004 38.8269745,18.9616171 C41.4333439,15.8783544 45.2263376,13.9041389 49.2323885,13.545275 C53.5040446,13.1623013 57.7451274,14.4957545 61.1721975,17.2989735 C64.8992675,20.3479262 67.2543631,24.792461 67.6336624,29.4957116 C68.0368471,34.4845698 66.3514968,39.3834802 62.888121,43.2911099 C59.3339809,47.3016697 54.2502229,49.8137174 48.9428981,50.183709 C43.3451274,50.574101 37.838121,48.7315618 33.4355732,44.9973365 C28.7320701,41.0081046 25.8123248,35.2699904 25.4234713,29.2536871 C25.4053185,28.9671523 25.3986306,28.6815448 25.3900318,28.3959373 L31.9766561,28.3959373 Z M138.776656,34.182271 C135.134618,34.182271 132.083981,31.7045332 131.303408,28.3959373 L133.322197,28.3959373 C134.050223,30.6474146 136.219968,32.2850212 138.776656,32.2850212 C141.927611,32.2850212 144.491943,29.7961559 144.491943,26.7370029 C144.491943,23.6769226 141.927611,21.1880573 138.776656,21.1880573 C136.268694,21.1880573 134.137166,22.7663169 133.369013,24.9519561 L131.336847,24.9519561 C132.164236,21.7064164 135.181433,19.2898802 138.776656,19.2898802 C143.006274,19.2898802 146.447675,22.6309315 146.447675,26.7370029 C146.447675,30.842147 143.006274,34.182271 138.776656,34.182271 L138.776656,34.182271 Z M136.607866,26.7370029 C136.607866,25.576027 137.581433,24.6320386 138.776656,24.6320386 C139.971879,24.6320386 140.94449,25.576027 140.94449,26.7370029 C140.94449,27.8970515 139.971879,28.8410399 138.776656,28.8410399 C137.581433,28.8410399 136.607866,27.8970515 136.607866,26.7370029 L136.607866,26.7370029 Z" id="Fill-1" fill="#F16522" mask="url(#mask-2)"></path>
                    </g>
                    <path d="M4,88.1491352 L4,88 C4,73.2318846 15.2253237,61 30.5456819,61 C39.3443185,61 45.0830543,64.4478199 50.2407124,68.7736735 C50.6208301,69.1474436 51,69.6694169 51,70.3405254 C51,71.384472 50.0141584,72.2792833 48.9515348,72.2792833 C48.420697,72.2792833 47.8898592,72.0555805 47.5865233,71.7582421 C43.187205,67.8042945 37.903473,64.5046777 30.4698479,64.5046777 C17.7278448,64.5046777 8.09503449,74.7232368 8.09503449,87.8508648 L8.09503449,88 C8.09503449,101.201264 17.8795127,111.49439 30.5456819,111.49439 C37.7508572,111.49439 42.6705861,108.98519 47.6765762,104.286498 C47.9799121,103.988228 48.4349159,103.689025 49.0415877,103.689025 C50.0283772,103.689025 50.9383849,104.584769 50.9383849,105.554148 C50.9383849,106.150689 50.6341011,106.598094 50.3307652,106.896365 C44.9456053,111.819691 39.2684845,115 30.394014,115 C15.2253237,115 4,103.140953 4,88.1491352" id="Fill-4" fill="#FEFEFE"></path>
                    <path d="M103.039973,110.365676 L117.100748,110.365676 C132.248946,110.365676 141.804681,100.295355 141.804681,87.6513907 L141.804681,87.5 C141.804681,74.9307852 132.248946,64.6343236 117.100748,64.6343236 L103.039973,64.6343236 L103.039973,104.733942 C103.039973,105.821116 102.135081,106.702021 101.019501,106.702021 C99.9048918,106.702021 99,105.821116 99,104.733942 L99,62.9680794 C99,61.8856357 99.9087754,61 101.019501,61 L117.100748,61 C134.190774,61 146,72.4328382 146,87.3486093 L146,87.5 C146,102.415771 134.190774,114 117.100748,114 L101.019501,114 C99.9087754,114 99,113.114364 99,112.031921 C99,111.092352 99.7874112,110.33256 100.751529,110.342968 L103.039973,110.365676 Z" id="Fill-6" fill="#FEFEFE"></path>
                    <path d="M93.1642427,61.3969029 C92.5508149,61.3479696 92.0652648,61.6114566 91.7335523,61.887177 L59.0017025,92.3293412 L58.9113229,62.9985277 C58.9382445,62.4659075 58.7997906,61.9803385 58.4373105,61.589813 C57.7661937,60.8642826 56.3537715,60.7955878 55.6124662,61.4533644 C55.1567221,61.8570642 55.0211527,62.3840383 55,62.8093816 L55.1509532,112.001472 C55.1249931,112.534093 55.263447,113.019662 55.625927,113.410187 C56.2970439,114.135717 57.709466,114.204412 58.4507713,113.546636 C58.9065155,113.142936 59.0420849,112.615962 59.0632376,112.190618 L59.0170863,97.3525335 L66.2686097,90.6590215 L89.5000215,113.364077 C89.8451948,113.708492 90.4201631,114.030323 91.1085867,113.961628 C92.180643,113.855292 93.073863,112.782523 92.9652152,111.73328 C92.9036801,111.133847 92.6354256,110.781904 92.2056416,110.370676 L69.1819106,87.9695716 L94.2689895,64.8090601 C94.6843512,64.4646449 94.9516441,64.0327144 94.994911,63.5076223 C95.0766373,62.5317792 94.1613031,61.475949 93.1642427,61.3969029" id="Fill-8" fill="#FEFEFE"></path>
                </g>
            </g>
        </g>
    </g>
</svg>