<?xml version="1.0" encoding="UTF-8"?>
<svg width="261px" height="265px" viewBox="0 0 261 265" version="1.1" xmlns="http://www.w3.org/2000/svg" xmlns:xlink="http://www.w3.org/1999/xlink">
    <!-- Generator: Sketch 53.2 (72643) - https://sketchapp.com -->
    <title>CKD-LOGO-with-tag</title>
    <desc>Created with Sketch.</desc>
    <defs>
        <polygon id="path-1" points="0.28768 0.43072 7.92368 0.43072 7.92368 16 0.28768 16"></polygon>
        <polygon id="path-3" points="0 0.173421659 260.724374 0.173421659 260.724374 96.26183 0 96.26183"></polygon>
    </defs>
    <g id="Page-1" stroke="none" stroke-width="1" fill="none" fill-rule="evenodd">
        <g id="CKD-LANDING-PAGE" transform="translate(-675.000000, -185.000000)">
            <g id="CKD-LOGO-with-tag" transform="translate(675.000000, 185.000000)">
                <g id="CKD-LOGO">
                    <path d="M105.561015,225.784952 L101.061015,225.784952 L101.061015,240.54232 C101.061015,240.77116 100.899838,241 100.645518,241 L99.3763499,241 C99.1455184,241 98.9608531,240.793643 98.9608531,240.54232 L98.9608531,225.784952 L94.4608531,225.784952 C94.2065335,225.784952 94,225.67013 94,225.418808 L94,224.412715 C94,224.183072 94.2065335,224 94.4608531,224 L105.561015,224 C105.814525,224 106,224.160589 106,224.412715 L106,225.418808 C106,225.647648 105.814525,225.784952 105.561015,225.784952" id="Fill-1" fill="#F16522"></path>
                    <path d="M117.569636,235.145106 L109.991424,235.145106 L109.991424,235.467861 C109.991424,238.210877 111.053835,239.22525 113.135779,239.22525 C114.447515,239.22525 116.122122,239.133035 117.1623,238.971253 L117.275052,238.971253 C117.45609,238.971253 117.637923,239.063468 117.637923,239.294008 L117.637923,240.077842 C117.637923,240.377139 117.547404,240.538112 117.185326,240.607678 C115.895823,240.861676 114.65158,241 113.135779,241 C110.533746,241 108,239.755087 108,235.467861 L108,233.393006 C108,230.097505 109.787359,228 113.022233,228 C116.325393,228 118,230.120154 118,233.393006 L118,234.637919 C118,234.938025 117.841194,235.145106 117.569636,235.145106 L117.569636,235.145106 Z M115.986343,233.393006 C115.986343,230.789123 115.013657,229.77475 113.022233,229.77475 C111.076862,229.77475 109.991424,230.903989 109.991424,233.393006 L109.991424,233.600896 L115.986343,233.600896 L115.986343,233.393006 Z" id="Fill-3" fill="#F16522"></path>
                    <path d="M129.552941,240.746002 C128.815686,240.884326 127.810196,241 126.759216,241 C123.72,241 122,238.786821 122,235.399104 L122,233.600896 C122,230.21237 123.698039,228 126.759216,228 C127.787451,228 128.815686,228.114865 129.552941,228.253189 C129.910588,228.322755 130,228.437621 130,228.760376 L130,229.590318 C130,229.820857 129.821176,229.935723 129.619608,229.935723 L129.53098,229.935723 C128.547451,229.820857 127.854118,229.77475 126.759216,229.77475 C124.971765,229.77475 123.966275,230.996204 123.966275,233.600896 L123.966275,235.399104 C123.966275,237.980337 124.949804,239.22525 126.759216,239.22525 C127.854118,239.22525 128.547451,239.179143 129.53098,239.063468 L129.619608,239.063468 C129.821176,239.063468 130,239.179143 130,239.409682 L130,240.239624 C130,240.538921 129.910588,240.677245 129.552941,240.746002" id="Fill-5" fill="#F16522"></path>
                    <path d="M143.524802,241 L142.38516,241 C142.123385,241 141.909962,240.796117 141.909962,240.547809 L141.909962,233.110458 C141.909962,230.849503 140.912047,230.149004 139.36807,230.149004 C138.63193,230.149004 137.135473,230.32988 136.090038,230.782071 L136.090038,240.547809 C136.090038,240.773111 135.876615,241 135.615673,241 L134.451021,241 C134.213422,241 134,240.796117 134,240.547809 L134,224.452984 C134,224.203883 134.190079,224 134.451021,224 L135.639016,224 C135.899958,224 136.090038,224.203883 136.090038,224.452984 L136.090038,229.108964 C137.230513,228.634561 138.702793,228.408465 139.724052,228.408465 C142.242601,228.408465 144,229.787251 144,233.110458 L144,240.547809 C144,240.796117 143.785744,241 143.524802,241" id="Fill-7" fill="#F16522"></path>
                    <path d="M158.524802,241 L157.384327,241 C157.123385,241 156.909962,240.789504 156.909962,240.53314 L156.909962,232.854524 C156.909962,230.497291 156.102126,229.773248 154.297207,229.773248 C153.298458,229.773248 152.182993,230.147555 151.090038,230.684035 L151.090038,240.53314 C151.090038,240.765751 150.876615,241 150.61484,241 L149.451021,241 C149.213422,241 149,240.789504 149,240.53314 L149,228.629851 C149,228.373488 149.190079,228.16381 149.451021,228.16381 L150.639016,228.16381 C150.899958,228.16381 151.090038,228.373488 151.090038,228.629851 L151.090038,229.073778 C152.396415,228.349735 153.465194,228 154.866611,228 C157.716965,228 159,229.750315 159,232.854524 L159,240.53314 C159,240.789504 158.785744,241 158.524802,241" id="Fill-9" fill="#F16522"></path>
                    <path d="M167.988564,241 C164.685464,241 163,238.764171 163,235.375646 L163,233.623546 C163,230.235829 164.685464,228 167.988564,228 C171.291663,228 173,230.235829 173,233.623546 L173,235.375646 C173,238.764171 171.291663,241 167.988564,241 L167.988564,241 Z M171.022715,233.623546 C171.022715,231.272852 170.100718,229.77475 167.988564,229.77475 C165.899282,229.77475 164.977285,231.250202 164.977285,233.623546 L164.977285,235.375646 C164.977285,237.727148 165.87641,239.22525 167.988564,239.22525 C170.078634,239.22525 171.022715,237.749798 171.022715,235.375646 L171.022715,233.623546 Z" id="Fill-11" fill="#F16522"></path>
                    <path d="M179.590746,241 L178.409254,241 C178.181093,241 178,240.796117 178,240.547809 L178,224.429978 C178,224.203883 178.158755,224 178.409254,224 L179.590746,224 C179.818109,224 180,224.18167 180,224.429978 L180,240.547809 C180,240.773111 179.840447,241 179.590746,241" id="Fill-13" fill="#F16522"></path>
                    <path d="M188.988564,241 C185.685464,241 184,238.764171 184,235.375646 L184,233.623546 C184,230.235829 185.685464,228 188.988564,228 C192.291663,228 194,230.235829 194,233.623546 L194,235.375646 C194,238.764171 192.291663,241 188.988564,241 L188.988564,241 Z M192.021926,233.623546 C192.021926,231.272852 191.101506,229.77475 188.988564,229.77475 C186.898494,229.77475 185.977285,231.250202 185.977285,233.623546 L185.977285,235.375646 C185.977285,237.727148 186.87641,239.22525 188.988564,239.22525 C191.078634,239.22525 192.021926,237.749798 192.021926,235.375646 L192.021926,233.623546 Z" id="Fill-15" fill="#F16522"></path>
                    <path d="M208.577715,229.518553 L207.733144,229.676852 C208.155429,230.107997 208.529971,230.788124 208.529971,232.012353 L208.529971,232.192925 C208.529971,234.686725 206.935494,236.069253 203.324254,236.069253 C202.080446,236.069253 201.283619,235.887885 200.602859,235.615835 C200.204445,235.797202 200.016763,236.04698 200.016763,236.386645 C200.016763,236.771653 200.204445,236.976089 200.74362,237.112115 L204.238794,237.972814 C206.53708,238.539984 208.741525,239.17477 208.741525,241.30504 L208.741525,241.486407 C208.741525,243.662019 207.240066,245 203.394223,245 C199.688318,245 198,243.617472 198,241.395723 L198,241.192083 C198,239.922512 198.702986,238.880445 199.477587,238.313275 L199.313777,238.244865 C198.562224,237.927472 198.234603,237.17973 198.234603,236.477329 L198.234603,236.45426 C198.234603,235.842544 198.539175,235.185485 199.196064,234.821955 C198.469206,234.164896 198.11689,233.348744 198.11689,232.192925 L198.11689,232.012353 C198.11689,229.994245 199.289905,228 203.324254,228 L208.460001,228 C208.741525,228 209,228.225914 209,228.497965 L209,229.087408 C209,229.382528 208.835366,229.473211 208.577715,229.518553 L208.577715,229.518553 Z M206.677842,241.30504 C206.677842,240.421272 205.927112,240.058537 203.816508,239.537504 L201.165906,238.880445 C200.485969,239.446025 200.016763,240.013195 200.016763,241.192083 L200.016763,241.395723 C200.016763,242.665294 200.791364,243.458378 203.394223,243.458378 C206.067874,243.458378 206.677842,242.732909 206.677842,241.486407 L206.677842,241.30504 Z M206.490159,232.012353 C206.490159,230.652099 205.857143,229.586168 203.324254,229.586168 C200.6967,229.586168 200.157525,230.742782 200.157525,232.012353 L200.157525,232.192925 C200.157525,233.190445 200.626731,234.505358 203.324254,234.505358 C205.857143,234.505358 206.490159,233.55318 206.490159,232.192925 L206.490159,232.012353 Z" id="Fill-17" fill="#F16522"></path>
                    <path d="M222.97768,228.545557 L219.359578,241.63653 C218.679982,244.091536 217.868775,245 215.346648,245 C214.732471,245 213.965135,244.909074 213.504118,244.795815 C213.241669,244.728019 213.044639,244.659426 213.044639,244.43211 L213.044639,243.591442 C213.044639,243.340997 213.219349,243.227738 213.461017,243.227738 L213.526437,243.227738 C214.009005,243.273201 214.99569,243.364127 215.478258,243.364127 C216.728161,243.364127 217.276149,243.022755 217.648657,241.432345 L217.868775,240.500751 L217.560917,240.500751 C216.90364,240.500751 216.333333,240.341231 215.938505,238.931876 L213.02232,228.545557 C213,228.500094 213,228.4315 213,228.386835 C213,228.15952 213.132379,228 213.394828,228 L214.600862,228 C214.776341,228 214.93027,228.181852 214.97414,228.363705 L217.560917,238.227597 C217.670977,238.68143 217.824906,238.727691 217.978065,238.727691 L218.329023,238.727691 L221.00431,228.341372 C221.04818,228.15952 221.223659,228 221.421458,228 L222.649042,228 C222.867621,228 223,228.15952 223,228.386835 C223,228.4315 223,228.500094 222.97768,228.545557" id="Fill-19" fill="#F16522"></path>
                    <path d="M102.446494,257.29052 C101.697334,257.29052 100.714062,257.222908 100.106191,257.176773 L100.106191,263.546603 C100.106191,263.772506 99.9419013,264 99.6847883,264 L98.4214024,264 C98.1864685,264 98,263.795574 98,263.546603 L98,247.748503 C98,247.430329 98.2102905,247.226698 98.5618699,247.182154 C99.5681428,247.068407 101.089463,247 102.446494,247 C106.237473,247 109,248.269512 109,251.918959 L109,252.21327 C109,255.997941 106.237473,257.29052 102.446494,257.29052 L102.446494,257.29052 Z M106.869987,251.918959 C106.869987,249.629702 105.465313,248.745181 102.446494,248.745181 C101.721156,248.745181 100.667239,248.79052 100.106191,248.836655 L100.106191,255.477728 C100.644239,255.5 101.837802,255.567612 102.446494,255.567612 C105.652602,255.567612 106.869987,254.570934 106.869987,252.21327 L106.869987,251.918959 Z" id="Fill-21" fill="#F16522"></path>
                    <path d="M121.553253,264.839027 L120.525734,264.839027 C120.279631,264.839027 120.078986,264.631946 120.078986,264.377948 L120.078986,263.870761 C119.007576,264.516272 117.891492,265 116.639815,265 C114.742315,265 113,264.147408 113,261.266069 L113,260.989422 C113,258.500404 114.406862,257.255491 118.38213,257.255491 L120.035095,257.255491 L120.035095,256.333333 C120.035095,254.397611 119.38692,253.729451 117.645389,253.729451 C116.193852,253.729451 115.121658,253.820857 114.228163,253.913882 L114.116868,253.913882 C113.91544,253.913882 113.714796,253.844316 113.714796,253.545019 L113.714796,252.737726 C113.714796,252.484537 113.871549,252.346214 114.183489,252.300106 C115.099713,252.138324 116.126448,252 117.645389,252 C120.749891,252 122,253.613776 122,256.333333 L122,264.377948 C122,264.631946 121.798572,264.839027 121.553253,264.839027 L121.553253,264.839027 Z M120.035095,258.707486 L118.38213,258.707486 C115.680484,258.707486 114.965688,259.330347 114.965688,260.966772 L114.965688,261.24342 C114.965688,262.902495 115.724375,263.340116 117.019943,263.340116 C118.047461,263.340116 118.962902,263.018169 120.035095,262.418767 L120.035095,258.707486 Z" id="Fill-23" fill="#F16522"></path>
                    <path d="M131.489344,253.774068 C130.371697,253.774068 129.352089,254.054183 128.137255,254.754473 L128.137255,264.53314 C128.137255,264.76657 127.919011,265 127.652174,265 L126.462063,265 C126.219096,265 126,264.790323 126,264.53314 L126,252.63067 C126,252.374307 126.194373,252.16381 126.462063,252.16381 L127.602728,252.16381 C127.870418,252.16381 128.064791,252.374307 128.064791,252.63067 L128.064791,253.120464 C129.279625,252.303868 130.396419,252 131.489344,252 C131.829497,252 132,252.140058 132,252.420174 L132,253.377646 C132,253.63401 131.829497,253.774068 131.489344,253.774068" id="Fill-25" fill="#F16522"></path>
                    <g id="Group-29" transform="translate(135.000000, 249.000000)">
                        <mask id="mask-2" fill="white">
                            <use xlink:href="#path-1"></use>
                        </mask>
                        <g id="Clip-28"></g>
                        <path d="M7.51328,15.88592 C7.05728,15.95392 6.46448,16.00032 6.03088,16.00032 C3.93488,16.00032 2.93168,15.45312 2.93168,12.94592 L2.93168,4.98992 L0.72048,4.73872 C0.47008,4.71632 0.28768,4.57952 0.28768,4.32832 L0.28768,3.71312 C0.28768,3.46272 0.47008,3.30272 0.72048,3.30272 L2.93168,3.30272 L2.93168,1.06912 C2.93168,0.84112 3.09088,0.65872 3.34208,0.61312 L4.52768,0.43072 L4.59568,0.43072 C4.77808,0.43072 4.93728,0.58992 4.93728,0.81792 L4.93728,3.30272 L7.39888,3.30272 C7.65008,3.30272 7.85488,3.50832 7.85488,3.75872 L7.85488,4.53392 C7.85488,4.78512 7.65008,4.98992 7.39888,4.98992 L4.93728,4.98992 L4.93728,12.94592 C4.93728,14.19952 5.25648,14.38192 6.16768,14.38192 L7.44528,14.38192 C7.76368,14.38192 7.92368,14.47232 7.92368,14.70112 L7.92368,15.49872 C7.92368,15.70352 7.80928,15.84032 7.51328,15.88592" id="Fill-27" fill="#F16522" mask="url(#mask-2)"></path>
                    </g>
                    <path d="M156.524802,265 L155.38516,265 C155.123385,265 154.909962,264.790323 154.909962,264.53314 L154.909962,256.855343 C154.909962,254.497291 154.102126,253.774068 152.297207,253.774068 C151.299291,253.774068 150.182993,254.147555 149.090871,254.684035 L149.090871,264.53314 C149.090871,264.76657 148.876615,265 148.615673,265 L147.451021,265 C147.213422,265 147,264.790323 147,264.53314 L147,252.63067 C147,252.373488 147.190079,252.16381 147.451021,252.16381 L148.639016,252.16381 C148.899958,252.16381 149.090871,252.373488 149.090871,252.63067 L149.090871,253.073778 C150.396415,252.350554 151.466028,252 152.866611,252 C155.717799,252 157,253.751134 157,256.855343 L157,264.53314 C157,264.790323 156.785744,265 156.524802,265" id="Fill-30" fill="#F16522"></path>
                    <path d="M169.569636,259.145551 L161.99063,259.145551 L161.99063,259.468326 C161.99063,262.211512 163.053835,263.22514 165.135779,263.22514 C166.447515,263.22514 168.122122,263.132918 169.1623,262.971935 L169.275846,262.971935 C169.45609,262.971935 169.637129,263.064157 169.637129,263.294711 L169.637129,264.078594 C169.637129,264.377909 169.547404,264.538892 169.185326,264.608463 C167.895823,264.861668 166.65158,265 165.135779,265 C162.533746,265 160,263.755818 160,259.468326 L160,257.393342 C160,254.097635 161.787359,252 165.022233,252 C168.325393,252 170,254.120286 170,257.393342 L170,258.638332 C170,258.938457 169.841194,259.145551 169.569636,259.145551 L169.569636,259.145551 Z M167.985549,257.393342 C167.985549,254.788488 167.012863,253.77486 165.022233,253.77486 C163.076862,253.77486 161.99063,254.904169 161.99063,257.393342 L161.99063,257.601245 L167.985549,257.601245 L167.985549,257.393342 Z" id="Fill-32" fill="#F16522"></path>
                    <path d="M180.490124,253.774068 C179.372318,253.774068 178.352565,254.054183 177.137559,254.754473 L177.137559,264.53314 C177.137559,264.76657 176.919284,265 176.651556,265 L175.461276,265 C175.218275,265 175,264.790323 175,264.53314 L175,252.63067 C175,252.374307 175.194401,252.16381 175.461276,252.16381 L176.602956,252.16381 C176.869831,252.16381 177.064232,252.374307 177.064232,252.63067 L177.064232,253.120464 C178.279238,252.303868 179.397044,252 180.490124,252 C180.830325,252 181,252.140058 181,252.420174 L181,253.377646 C181,253.63401 180.830325,253.774068 180.490124,253.774068" id="Fill-34" fill="#F16522"></path>
                    <path d="M188.912543,265 C188.103951,265 186.530495,264.931243 185.459532,264.654595 C185.174914,264.585029 185,264.446705 185,264.193516 L185,263.386224 C185,263.179143 185.174914,263.040819 185.393556,263.040819 L185.481013,263.040819 C186.530495,263.179143 188.126199,263.294817 188.912543,263.294817 C190.333333,263.294817 191.076717,262.902495 191.076717,261.657582 C191.076717,260.966772 190.683161,260.528343 189.437284,259.744509 L187.23015,258.361272 C185.896049,257.50868 185,256.517765 185,255.065771 C185,252.66816 186.705409,252 188.956272,252 C190.180667,252 191.339087,252.115674 192.365554,252.300106 C192.650173,252.345405 192.781358,252.507187 192.781358,252.761185 L192.781358,253.521561 C192.781358,253.798208 192.628692,253.913073 192.41005,253.913073 L192.344074,253.913073 C191.57921,253.844316 190.180667,253.728642 188.956272,253.728642 C187.732643,253.728642 186.923283,253.890424 186.923283,255.065771 C186.923283,255.757389 187.426544,256.19501 188.432298,256.817871 L190.595704,258.17684 C192.41005,259.306888 193,260.298612 193,261.657582 C193,264.009085 191.360568,265 188.912543,265" id="Fill-36" fill="#F16522"></path>
                    <g id="Group-40">
                        <mask id="mask-4" fill="white">
                            <use xlink:href="#path-3"></use>
                        </mask>
                        <g id="Clip-39"></g>
                        <path d="M241.222907,28.48308 C231.558634,28.48308 223.517733,35.55438 221.988096,44.796055 L168.403099,44.796055 C165.300997,44.796055 164.033167,42.7768383 161.880523,38.1677217 C160.092309,34.3410717 157.234238,29.5775633 152.366548,29.5775633 C146.505764,29.5775633 145.316315,38.8022633 143.670319,51.5698883 C143.488507,52.9812383 143.242052,55.8378883 143.013374,57.46183 C142.805706,58.93623 142.19078,59.365455 141.916851,57.43758 C141.747161,56.23963 141.126579,49.122255 140.879315,47.434455 C138.982823,34.55043 132.531356,22.4674633 122.730523,13.693005 C112.156387,4.22742167 98.7977118,-0.54417 85.1117768,0.26093 C71.9939006,1.03208 59.3616622,7.24573833 50.4553402,17.30868 C43.4834889,25.1866967 39.2792071,34.7331133 38.2206622,44.796055 L19.3341204,44.796055 C17.9992226,40.8804883 14.2951235,38.0529383 9.93569628,38.0529383 C4.45712043,38.0529383 -8.08049536e-05,42.511705 -8.08049536e-05,47.9930133 C-8.08049536e-05,53.4743217 4.45712043,57.9330883 9.93569628,57.9330883 C14.3791607,57.9330883 18.1503279,54.9988383 19.4157334,50.965255 L37.9645105,50.965255 C37.9798635,51.605455 37.9976406,52.2464633 38.037235,52.88828 C38.8145786,65.2978133 44.6551607,77.1301967 54.0592412,85.3533717 C62.1728666,92.447305 72.1724796,96.26183 82.5001607,96.26183 C83.5013341,96.26183 84.5073557,96.2262633 85.5141854,96.1535133 C96.3679068,95.3734717 106.746495,90.0966717 113.988235,81.6746467 C121.08695,73.4191383 124.539746,63.0425633 123.709879,52.454205 C122.922031,42.3936883 118.035755,32.8860717 110.305145,26.36848 C103.074718,20.27203 94.0908232,17.37658 85.0099625,18.21563 C76.4163557,19.0094133 68.2930337,23.359055 62.7223402,30.149055 C59.1644981,34.4857633 56.8809502,39.5135967 55.9872474,44.796055 L44.4264827,44.796055 C45.4640183,36.2422717 49.113978,28.1306467 55.0717272,21.3988467 C62.9001111,12.5548717 73.9808944,7.09619667 85.473783,6.42043 C97.5072567,5.71313833 109.277306,9.92859667 118.618359,18.290805 C127.120656,25.90288 132.792356,36.3069383 134.638749,47.4546633 C134.850458,48.7277883 135.716687,56.19598 136.510192,61.3676967 C137.192185,65.8094883 138.497185,68.177905 139.028074,68.861755 C140.460746,70.7087967 141.90069,70.7087967 142.636015,70.7087967 C147.421285,70.7087967 148.261656,64.191205 149.786446,52.3588217 C150.322182,48.2064133 151.317699,41.3129467 152.30352,37.63503 C152.780269,35.8518467 153.768514,36.3392717 154.145065,36.8242717 C154.786656,37.64958 155.442792,38.9582717 156.293668,40.780255 C158.301672,45.0789717 161.052272,50.965255 168.403099,50.965255 L221.947693,50.965255 C223.382789,60.3176717 231.480254,67.5029467 241.222907,67.5029467 C251.975622,67.5029467 260.724374,58.7511217 260.724374,47.9930133 C260.724374,37.234905 251.975622,28.48308 241.222907,28.48308 L241.222907,28.48308 Z M9.93569628,51.76308 C7.85739288,51.76308 6.16695325,50.0720467 6.16695325,47.9930133 C6.16695325,45.91398 7.85739288,44.2221383 9.93569628,44.2221383 C12.0131916,44.2221383 13.7044393,45.91398 13.7044393,47.9930133 C13.7044393,50.0720467 12.0131916,51.76308 9.93569628,51.76308 L9.93569628,51.76308 Z M87.8276313,67.7397883 C90.9370059,67.7397883 93.8774981,67.004205 96.4883062,65.7027883 C94.0568851,68.7784967 90.3988449,71.2665467 84.8984517,72.07003 C79.7802659,72.732055 74.6192536,71.2439133 70.3664889,67.87963 C65.5909161,64.10148 62.4871978,58.4504217 61.8528789,52.3749883 C61.8035879,51.9053467 61.772074,51.4348967 61.7510647,50.965255 L68.5217118,50.965255 C69.8566096,60.432455 78.002557,67.7397883 87.8276313,67.7397883 L87.8276313,67.7397883 Z M74.4940059,48.229855 C74.4940059,40.8740217 80.4751885,34.88993 87.8276313,34.88993 C95.180074,34.88993 101.161257,40.8740217 101.161257,48.229855 C101.161257,55.5856883 95.180074,61.5705883 87.8276313,61.5705883 C80.4751885,61.5705883 74.4940059,55.5856883 74.4940059,48.229855 L74.4940059,48.229855 Z M55.5832226,50.965255 C55.6074641,51.6482967 55.6478666,52.3313383 55.7189749,53.0159967 C56.5254084,60.7347717 60.4703062,67.9168133 66.5419904,72.71993 C72.1078356,77.1229217 78.9075724,79.0653467 85.7396313,78.1818383 C99.4102133,76.185255 105.011613,66.0713883 106.76104,57.1360717 C107.414752,53.7968467 108.927421,43.7015717 103.530458,36.672305 C99.8821142,31.9225383 94.2605136,28.7199217 87.8276313,28.7199217 C78.2457799,28.7199217 70.2614424,35.67078 68.6356467,44.796055 L62.2649842,44.796055 C63.0924269,40.9394967 64.8580152,37.2704717 67.4898325,34.063005 C72.0205663,28.5396633 78.6134424,25.0023967 85.5764053,24.3589633 C93.0023805,23.6734967 100.3726,26.0621217 106.331158,31.0859133 C112.808483,36.5470133 116.902062,44.5107133 117.562238,52.9359717 C118.262817,61.8737133 115.333637,70.6505967 109.31286,77.6515717 C103.135322,84.8360383 94.2993,89.3376467 85.0721824,90.00048 C75.3432659,90.6980717 65.7711111,87.398455 58.118074,80.70788 C49.9438449,73.5605967 44.8676777,63.2802133 44.1921483,52.502705 C44.1598263,51.9894133 44.1477056,51.4777383 44.1339687,50.965255 L55.5832226,50.965255 Z M241.222907,61.3329383 C234.892647,61.3329383 229.590226,56.8935717 228.234319,50.965255 L231.742062,50.965255 C233.008275,54.9988383 236.779442,57.9330883 241.222907,57.9330883 C246.701483,57.9330883 251.157876,53.4743217 251.157876,47.9930133 C251.157876,42.511705 246.701483,38.0529383 241.222907,38.0529383 C236.862672,38.0529383 233.15938,40.8804883 231.824483,44.796055 L228.29169,44.796055 C229.72921,38.9817133 234.973452,34.65228 241.222907,34.65228 C248.57535,34.65228 254.55734,40.63718 254.55734,47.9930133 C254.55734,55.3488467 248.57535,61.3329383 241.222907,61.3329383 L241.222907,61.3329383 Z M237.454164,47.9930133 C237.454164,45.91398 239.144603,44.2221383 241.222907,44.2221383 C243.300402,44.2221383 244.99165,45.91398 244.99165,47.9930133 C244.99165,50.0720467 243.300402,51.76308 241.222907,51.76308 C239.144603,51.76308 237.454164,50.0720467 237.454164,47.9930133 L237.454164,47.9930133 Z" id="Fill-38" fill="#F16522" mask="url(#mask-4)"></path>
                    </g>
                    <path d="M7,156.768023 L7,156.5 C7,129.972209 26.584852,108 53.315463,108 C68.6651652,108 78.6780797,114.195493 87.6770689,121.965725 C88.3385345,122.635376 89,123.573051 89,124.779563 C89,126.654911 87.2795458,128.262237 85.4271204,128.262237 C84.5009077,128.262237 83.574695,127.860609 83.0452007,127.324562 C75.370752,120.223981 66.1504696,114.296511 53.1826871,114.296511 C30.951973,114.296511 14.1457591,132.651628 14.1457591,156.231977 L14.1457591,156.5 C14.1457591,180.213953 31.2167201,198.703489 53.315463,198.703489 C65.8857224,198.703489 74.4686804,194.195157 83.2021177,185.755274 C83.7316121,185.219228 84.5258535,184.683181 85.5840374,184.683181 C87.3052963,184.683181 88.8929746,186.290506 88.8929746,188.03225 C88.8929746,189.104344 88.3626755,189.908414 87.8339859,190.44446 C78.4382783,199.286786 68.533194,205 53.0507159,205 C26.584852,205 7,183.697442 7,156.768023" id="Fill-41" fill="#FEFEFE"></path>
                    <path d="M180.876005,196.622114 L204.809746,196.622114 C230.594564,196.622114 246.85944,178.952259 246.85944,156.765779 L246.85944,156.5 C246.85944,134.446005 230.594564,116.377078 204.809746,116.377078 L180.876005,116.377078 L180.876005,186.740632 C180.876005,188.647939 179.336121,190.194142 177.438405,190.194142 C175.53908,190.194142 174,188.647939 174,186.740632 L174,113.454318 C174,111.554282 175.547121,110 177.438405,110 L204.809746,110 C233.900289,110 254,130.061057 254,156.234221 L254,156.5 C254,182.672356 233.900289,203 204.809746,203 L177.438405,203 C175.547121,203 174,201.444911 174,199.545682 C174,197.896075 175.339659,196.564757 176.980862,196.581722 L180.876005,196.622114 Z" id="Fill-43" fill="#FEFEFE"></path>
                    <path d="M163.832815,110.7042 C162.774848,110.617309 161.937997,111.084248 161.36584,111.573926 L104.904626,165.565972 L104.748069,113.544006 C104.794068,112.601194 104.554391,111.737964 103.930586,111.045269 C102.772552,109.758951 100.335436,109.637953 99.0571599,110.804084 C98.2703424,111.521142 98.0371216,112.455021 98,113.209433 L98.2622725,200.455713 C98.2154669,201.399338 98.4551436,202.261755 99.0797557,202.95445 C100.236983,204.24158 102.674099,204.361766 103.952375,203.195635 C104.739192,202.478578 104.972413,201.544698 105.009535,200.791098 L104.931257,174.475183 L117.43883,162.602731 L157.512452,202.872431 C158.107205,203.482295 159.098998,204.052368 160.286891,203.93137 C162.134903,203.74297 163.677873,201.840291 163.489843,199.979841 C163.38332,198.916842 162.920107,198.293173 162.180095,197.563123 L122.464778,157.832637 L165.738931,116.756552 C166.454733,116.145064 166.915526,115.379282 166.991383,114.447027 C167.130992,112.71732 165.552516,110.8455 163.832815,110.7042" id="Fill-45" fill="#FEFEFE"></path>
                </g>
            </g>
        </g>
    </g>
</svg>