<?xml version="1.0" encoding="UTF-8"?>
<svg width="65px" height="159px" viewBox="0 0 65 159" version="1.1" xmlns="http://www.w3.org/2000/svg" xmlns:xlink="http://www.w3.org/1999/xlink">
    <!-- Generator: Sketch 53.2 (72643) - https://sketchapp.com -->
    <title>logo footer</title>
    <desc>Created with Sketch.</desc>
    <defs>
        <polygon id="path-1" points="0.5 0.5 168.5 0.5 168.5 81.5 0.5 81.5"></polygon>
    </defs>
    <g id="Page-1" stroke="none" stroke-width="1" fill="none" fill-rule="evenodd">
        <g id="CKD-Home-Process" transform="translate(-771.000000, -2961.000000)">
            <g id="Process-Center-Line" transform="translate(426.000000, 265.000000)">
                <g id="logo-footer" transform="translate(377.500000, 2780.000000) rotate(90.000000) translate(-377.500000, -2780.000000) translate(293.000000, 2739.000000)">
                    <mask id="mask-2" fill="white">
                        <use xlink:href="#path-1"></use>
                    </mask>
                    <g id="Clip-2"></g>
                    <path d="M146.18699,27.6503067 C139.588309,27.6503067 134.098478,32.4331762 133.054253,38.6848453 L96.4712539,38.6848453 C94.3533265,38.6848453 93.4882417,37.3194349 92.0177108,34.2020288 C90.7977483,31.6128062 88.8464887,28.3908873 85.5233383,28.3908873 C81.5210453,28.3908873 80.7103825,34.6301946 79.5856588,43.2665556 C79.4620752,44.2217809 79.2931399,46.1547075 79.1378101,47.2526548 C78.9949521,48.2505843 78.5765821,48.5405233 78.389506,47.2369217 C78.2727252,46.4266658 77.8498201,41.6112062 77.6808847,40.469431 C76.3860919,31.7544043 71.981302,23.5799229 65.2896494,17.6451639 C58.0707825,11.2417827 48.950543,8.01424475 39.6080799,8.5592851 C30.6511067,9.08072577 22.027469,13.2837173 15.9457976,20.0916646 C11.1861301,25.4206983 8.31649734,31.8780217 7.59313672,38.6848453 L-5.30036944,38.6848453 C-6.21193987,36.0360615 -8.74143444,34.1233632 -11.7176439,34.1233632 C-15.4568967,34.1233632 -18.5,37.1396278 -18.5,40.8481497 C-18.5,44.5555479 -15.4568967,47.5718124 -11.7176439,47.5718124 C-8.68361094,47.5718124 -6.10876461,45.5871913 -5.24481353,42.8586182 L7.41853244,42.8586182 C7.42873658,43.2912791 7.44120832,43.7250637 7.46841938,44.1588484 C8.0001688,52.5535936 11.9865887,60.5583821 18.4072646,66.1200413 C23.9469824,70.9197677 30.7735565,73.5 37.823488,73.5 C38.5071658,73.5 39.194245,73.4752765 39.8813242,73.4258296 C47.2918023,72.8987699 54.3768814,69.3284747 59.3213574,63.6319602 C64.168327,58.0478251 66.5254849,51.0274806 65.9585879,43.8655381 C65.4211695,37.0609621 62.0844135,30.6283622 56.8066021,26.2197162 C51.8700627,22.0953903 45.7373706,20.1366164 39.5377846,20.7052565 C33.6704003,21.2413065 28.1250135,24.1845243 24.3211344,28.7763488 C21.8925475,31.7105764 20.3335807,35.1123024 19.7224657,38.6848453 L11.8301252,38.6848453 C12.5387465,32.8984272 15.0308258,27.4120623 19.0988789,22.8584468 C24.4424504,16.8753647 32.0082582,13.1825758 39.8541132,12.7251915 C48.069585,12.2475788 56.1047836,15.0986455 62.4823752,20.7558272 C68.2874009,25.9050538 72.1593076,32.9422552 73.4200866,40.4829165 C73.5640785,41.3448669 74.155919,46.3974472 74.6978725,49.8946958 C75.1627281,52.8997223 76.055024,54.5022534 76.4167044,54.9641329 C77.3951686,56.2137924 78.3781681,56.2137924 78.8804389,56.2137924 C82.1468996,56.2137924 82.7205994,51.8051465 83.7614223,43.8014818 C84.1276378,40.9919954 84.8067805,36.3293719 85.4802541,33.8412908 C85.805653,32.6354593 86.4802605,32.9647311 86.7376318,33.2928791 C87.1752763,33.8514049 87.6231249,34.7358312 88.2036275,35.9686339 C89.5755183,38.8758903 91.4530813,42.8586182 96.4712539,42.8586182 L133.027042,42.8586182 C134.00664,49.1855814 139.53502,54.044869 146.18699,54.044869 C153.528307,54.044869 159.5,48.1247194 159.5,40.8481497 C159.5,33.5704563 153.528307,27.6503067 146.18699,27.6503067 L146.18699,27.6503067 Z M-11.7176439,43.3980395 C-13.1348865,43.3980395 -14.2902226,42.2540167 -14.2902226,40.8481497 C-14.2902226,39.441159 -13.1348865,38.2971361 -11.7176439,38.2971361 C-10.2981337,38.2971361 -9.14393134,39.441159 -9.14393134,40.8481497 C-9.14393134,42.2540167 -10.2981337,43.3980395 -11.7176439,43.3980395 L-11.7176439,43.3980395 Z M41.4606994,54.2055716 C43.5842957,54.2055716 45.5911112,53.7077306 47.3745693,52.8277995 C45.7135609,54.9079432 43.2169464,56.5913874 39.4606866,57.135304 C35.9674671,57.5825742 32.4436351,56.5756543 29.5399885,54.2999703 C26.2803306,51.7444616 24.1612695,47.9224363 23.7281601,43.8115959 C23.6941463,43.4935621 23.6726042,43.1755282 23.6578649,42.8586182 L28.2803433,42.8586182 C29.1919138,49.2619994 34.7531737,54.2055716 41.4606994,54.2055716 L41.4606994,54.2055716 Z M32.3574668,41.0077286 C32.3574668,36.0315663 36.441393,31.9836584 41.4606994,31.9836584 C46.4811395,31.9836584 50.5650658,36.0315663 50.5650658,41.0077286 C50.5650658,45.9838908 46.4811395,50.0329225 41.4606994,50.0329225 C36.441393,50.0329225 32.3574668,45.9838908 32.3574668,41.0077286 L32.3574668,41.0077286 Z M19.4469537,42.8586182 C19.4639606,43.3204977 19.4911717,43.7823773 19.5399248,44.2465044 C20.0909488,49.4676538 22.7837097,54.3258176 26.9288608,57.5747076 C30.7293385,60.5527631 35.3722252,61.866479 40.0355202,61.2697441 C49.368913,59.9178192 53.1932004,53.0772819 54.3870856,47.0323911 C54.8338004,44.7735641 55.8666868,37.9453884 52.1818561,33.18949 C49.6920443,29.9765614 45.8530176,27.8110093 41.4606994,27.8110093 C34.9198414,27.8110093 29.4685595,32.5129657 28.3585751,38.6848453 L24.0093411,38.6848453 C24.5739705,36.0765181 25.7791936,33.594056 27.5762572,31.4251325 C30.6692474,27.6885157 35.1704099,25.2959571 39.9244084,24.8610487 C44.9936017,24.3969215 50.0265136,26.0129381 54.0934329,29.4101689 C58.5163636,33.1052054 61.311166,38.4915526 61.7612822,44.1914385 C62.2397433,50.2374531 60.2397306,56.1744596 56.1297271,60.9101298 C51.9120131,65.7705412 45.8790949,68.8149006 39.5808688,69.2632946 C32.9379694,69.7364121 26.4027803,67.5034324 21.1782573,62.9779118 C15.5965891,58.1433477 12.1317144,51.1893071 11.6702602,43.8981281 C11.6487181,43.5508756 11.6407816,43.2047469 11.6305774,42.8586182 L19.4469537,42.8586182 Z M146.18699,49.8710961 C141.864967,49.8710961 138.244763,46.8683171 137.318453,42.8586182 L139.71416,42.8586182 C140.578111,45.5871913 143.152957,47.5718124 146.18699,47.5718124 C149.926243,47.5718124 152.969346,44.5555479 152.969346,40.8481497 C152.969346,37.1396278 149.926243,34.1233632 146.18699,34.1233632 C143.210781,34.1233632 140.681286,36.0360615 139.769716,38.6848453 L137.358136,38.6848453 C138.340001,34.7515644 141.920523,31.8229558 146.18699,31.8229558 C151.206296,31.8229558 155.290223,35.8719875 155.290223,40.8481497 C155.290223,45.8231881 151.206296,49.8710961 146.18699,49.8710961 L146.18699,49.8710961 Z M143.613277,40.8481497 C143.613277,39.441159 144.768614,38.2971361 146.18699,38.2971361 C147.605366,38.2971361 148.759569,39.441159 148.759569,40.8481497 C148.759569,42.2540167 147.605366,43.3980395 146.18699,43.3980395 C144.768614,43.3980395 143.613277,42.2540167 143.613277,40.8481497 L143.613277,40.8481497 Z" id="Fill-1" fill="#F16522" mask="url(#mask-2)"></path>
                </g>
            </g>
        </g>
    </g>
</svg>