<?xml version="1.0" encoding="UTF-8"?>
<svg width="136px" height="34px" viewBox="0 0 136 34" version="1.1" xmlns="http://www.w3.org/2000/svg" xmlns:xlink="http://www.w3.org/1999/xlink">
    <!-- Generator: Sketch 53.2 (72643) - https://sketchapp.com -->
    <title>Group</title>
    <desc>Created with Sketch.</desc>
    <defs>
        <polygon id="path-1" points="0.102608696 0.161270955 19.4434783 0.161270955 19.4434783 26 0.102608696 26"></polygon>
        <polygon id="path-3" points="0.44175 0.48625 4.65416667 0.48625 4.65416667 4.77291667 0.44175 4.77291667"></polygon>
    </defs>
    <g id="Page-1" stroke="none" stroke-width="1" fill="none" fill-rule="evenodd">
        <g id="CKD-Home-Process" transform="translate(-737.000000, -3437.000000)">
            <g id="footer" transform="translate(671.000000, 3378.000000)">
                <g id="Group" transform="translate(66.000000, 59.000000)">
                    <path d="M31.5954396,8.00340883 C31.5795288,8.00340883 30.9634272,7.94802518 30.1183868,8.2837353 C28.639566,8.87080196 27.3834965,10.4027989 26.2167043,12.3923499 C26.2167043,10.3329303 25.8286575,8.76003467 25.556406,8.12269669 C25.556406,8.12269669 25.4264677,8.04260341 24.9738938,8.12269669 C24.6335794,8.18404473 20,9.6214634 20,9.6214634 L20,10.7453254 C22.2920396,10.8194543 22.8365426,11.194359 22.8365426,13.9286071 L22.8365426,23.1043994 C22.8365426,25.2396521 22.3309326,25.5762142 20.1166792,25.7261761 L20.1166792,27 L29.6746521,27 L29.6746521,25.7261761 C26.7603234,25.6145568 26.3722766,25.2396521 26.3722766,23.1043994 L26.3722766,16.5503838 C26.3722766,12.9172165 27.4215057,11.7183735 30.607202,11.7183735 C30.9554718,11.7183735 31.1755712,11.81636 31.4354477,11.7916503 C31.8005122,11.756716 31.9445934,11.4840581 32.0259153,11.3230195 C32.5571593,10.282659 33.1847521,9.38970414 33.9599617,8.60325634 C34.0218371,8.54105624 34.0147656,8.47800409 33.9193008,8.44988624 C33.5056199,8.32804221 32.3335241,8.00340883 31.5954396,8.00340883" id="Fill-1" fill="#D2C4BC"></path>
                    <path d="M47.8825174,23.2584102 L48.6921221,24.5058849 C46.8422236,25.8626702 44.5669097,27 41.8293405,27 C36.3156077,27 33,23.4787 33,17.463285 C33,11.484585 36.5471739,8 41.2890192,8 C46.1475248,8 49,11.1916996 49,16.7665349 L49,17.7570048 L36.7024286,17.7570048 C36.7787402,23.0756697 38.7067047,24.7987703 42.7556055,24.7987703 C44.4134094,24.7987703 46.5325914,24.1020202 47.8825174,23.2584102 M36.7401458,15.9596399 L45.3379201,15.9596399 C45.3379201,11.484585 44.1432487,9.76064998 41.2127076,9.76064998 C38.5900444,9.76064998 37.0103065,11.2642951 36.7401458,15.9596399" id="Fill-3" fill="#D2C4BC"></path>
                    <g id="Group-7" transform="translate(50.000000, 8.000000)">
                        <mask id="mask-2" fill="white">
                            <use xlink:href="#path-1"></use>
                        </mask>
                        <g id="Clip-6"></g>
                        <path d="M12.0286957,0.230729032 C16.2321739,0.230729032 19.4434783,3.03201935 19.4434783,9.37350323 C19.4434783,15.1245355 16.6913043,18.9582774 11.646087,18.9582774 C9.69652174,18.9582774 7.82347826,18.3317613 6.37130435,16.856471 L6.37130435,22.2024065 C6.37130435,24.1935032 6.75304348,24.6363419 9.35304348,24.7470516 L9.35304348,26.0000839 L0.217391304,26.0000839 L0.217391304,24.7470516 C2.39565217,24.5986 2.89304348,24.2673097 2.89304348,22.1663419 L2.89304348,5.90795484 C2.89304348,3.21653548 2.3573913,2.84750323 0.102608696,2.77453548 L0.102608696,1.66827742 C0.102608696,1.66827742 4.5973913,0.286083871 4.99565217,0.192987097 C5.50347826,0.0755677419 5.61826087,0.316277419 5.64608696,0.394277419 C5.84086957,0.942793548 6.11304348,2.02808387 6.18,3.25343871 C7.59391304,1.48376129 9.96347826,0.230729032 12.0286957,0.230729032 M11.34,2.59001935 C9.54347826,2.59001935 7.89913043,3.32724516 6.37130435,4.94930968 L6.37130435,14.9400194 C7.55565217,16.3406645 9.39043478,17.1525355 10.8426087,17.1525355 C14.0156522,17.1525355 15.6973913,15.6772452 15.6973913,10.0738258 C15.6973913,4.39576129 14.4356522,2.59001935 11.34,2.59001935" id="Fill-5" fill="#D2C4BC" mask="url(#mask-2)"></path>
                    </g>
                    <path d="M79.4991592,27 C74.5479723,27 71,23.4785454 71,17.5004172 C71,11.5581712 74.5479723,8 79.4260138,8 C84.8951039,8 88,12.1448021 88,17.6831657 C88,23.5160964 84.4150346,27 79.4991592,27 M79.4260138,9.79744389 C75.7300692,9.79744389 74.6219585,12.5854012 74.6219585,17.1332514 C74.6219585,22.6716149 75.9520277,25.2033906 79.5739862,25.2033906 C82.7520277,25.2033906 84.3780415,22.5614651 84.3780415,17.8300321 C84.3780415,12.2182353 82.6402077,9.79744389 79.4260138,9.79744389" id="Fill-8" fill="#D2C4BC"></path>
                    <path d="M89.1146218,27 L89.1146218,25.7190979 C91.3073109,25.5683028 91.806922,25.2298704 91.806922,23.0836097 L91.806922,13.855974 C91.806922,11.1065327 91.268812,10.7295447 89,10.655004 L89,9.52575383 C89,9.52575383 94.4510986,8.06064174 94.7302158,8.018659 C95.010208,7.97667625 95.3076998,8.018659 95.3076998,8.018659 L95.3076998,23.0836097 C95.3076998,25.2298704 95.5763173,25.6068583 98,25.7190979 L98,27 L89.1146218,27 Z" id="Fill-10" fill="#D2C4BC"></path>
                    <path d="M116.551842,23.0856495 C116.551842,25.2307923 117.004284,25.5699048 119,25.719765 L119,27 L110.488432,27 L110.488432,25.719765 C112.860326,25.6075839 113.12425,25.1931132 113.12425,23.3494036 L113.12425,13.7874613 C113.12425,11.5669601 112.183376,10.7011959 110.374464,10.7011959 C108.115681,10.7011959 106.682948,11.6046393 105.177378,13.0724137 L105.177378,23.3494036 C105.177378,25.1931132 105.441302,25.6075839 107.814053,25.719765 L107.814053,27 L99.1122536,27 L99.1122536,25.719765 C101.25964,25.5699048 101.749786,25.2307923 101.749786,23.0856495 L101.749786,13.863676 C101.749786,11.1148103 101.221937,10.738875 99,10.6635167 L99,9.53485472 C99,9.53485472 103.51671,8.09362699 103.821765,8.02854482 C104.126821,7.96431898 104.386461,8.02854482 104.386461,8.02854482 C104.650386,8.63141132 104.98886,9.98614825 105.025707,11.3040624 C106.720651,9.53485472 108.60497,8.06708032 111.467009,8.06708032 C114.479863,8.06708032 116.551842,9.83543163 116.551842,13.1100928 L116.551842,23.0856495 Z" id="Fill-12" fill="#D2C4BC"></path>
                    <path d="M128.448766,10.5923773 L124.550816,10.5923773 L124.550816,21.7492995 C124.550816,24.6303488 124.973233,25.4623904 126.810958,25.4623904 C127.435801,25.4623904 128.60435,25.4623904 129,25.4481028 L129,26.6675902 C128.713927,26.8155087 124.820995,27.349192 123.084483,26.6423768 C121.801338,26.1196193 121.204935,24.5706771 121.204935,22.2300347 L121.204935,10.5923773 L119,10.5923773 L119,9.41071004 L121.462568,8.56101902 C121.792974,6.82465734 122.463823,4.20162501 123.190715,3.46287287 C123.833961,2.85691122 124.918026,3.01995777 124.918026,3.01995777 C124.735675,4.34954352 124.58762,6.67673882 124.58762,8.56101902 L128.964032,8.56101902 L128.448766,10.5923773 Z" id="Fill-14" fill="#D2C4BC"></path>
                    <g id="Group-18" transform="translate(131.000000, 23.000000)">
                        <mask id="mask-4" fill="white">
                            <use xlink:href="#path-3"></use>
                        </mask>
                        <g id="Clip-17"></g>
                        <path d="M2.54758333,4.77291667 C1.35841667,4.77291667 0.44175,3.82041667 0.44175,2.62958333 C0.44175,1.43875 1.35841667,0.48625 2.54758333,0.48625 C3.73675,0.48625 4.65425,1.43875 4.65425,2.62958333 C4.65425,3.82041667 3.73675,4.77291667 2.54758333,4.77291667" id="Fill-16" fill="#F16522" mask="url(#mask-4)"></path>
                    </g>
                    <path d="M16.4072908,23.1536759 L16.4072908,8.35824477 C16.4072908,8.35824477 16.046654,8.3397326 15.8520112,8.35824477 C15.6573684,8.37675694 14.0370305,8.83956119 14.0370305,8.83956119 L5.92691472,8.83956119 L5.92691472,6.36145479 C5.92691472,3.3279833 6.92540689,1.81166828 9.07490354,1.81166828 C10.2966872,1.81166828 10.8132068,2.73980117 11.3895516,3.99357995 C11.3895516,3.99357995 11.8260233,5.29448063 13.4463613,5.29448063 C14.7431372,5.29448063 15.7433146,4.25948203 15.7433146,2.96447159 C15.7433146,1.30005921 13.9266486,0.665596659 13.9266486,0.665596659 C13.0376957,0.332377598 11.222715,0 9.40773427,0 C5.18541842,0 2.59270921,2.4781064 2.59270921,6.39763767 L2.59270921,8.83956119 L0.258681095,9.69027955 L0.258681095,10.8733755 L2.59270921,10.8733755 L2.59270921,23.1536759 C2.59270921,25.2615389 2.11073662,25.594758 0,25.7420139 L0,27 L8.37048206,27 L8.37048206,25.7420139 C6.37012728,25.6317823 5.96314692,25.1513074 5.96314692,23.1536759 L5.96314692,10.8733755 L10.5924431,10.8733755 C12.5927979,10.8733755 13.0376957,11.5389722 13.0376957,14.0170786 L13.0376957,23.1536759 C13.0376957,25.2615389 12.5557231,25.594758 10.5924431,25.7420139 L10.5924431,27 L19,27 L19,25.7420139 C16.6668145,25.6317823 16.4072908,25.2615389 16.4072908,23.1536759" id="Fill-19" fill="#D2C4BC"></path>
                    <path d="M47.8825174,23.2584102 L48.6921221,24.5058849 C46.8422236,25.8626702 44.5669097,27 41.8293405,27 C36.3156077,27 33,23.4787 33,17.463285 C33,11.484585 36.5471739,8 41.2890192,8 C46.1475248,8 49,11.1916996 49,16.7665349 L49,17.7570048 L36.7024286,17.7570048 C36.7787402,23.0756697 38.7067047,24.7987703 42.7556055,24.7987703 C44.4134094,24.7987703 46.5325914,24.1020202 47.8825174,23.2584102 M36.7401458,15.9596399 L45.3379201,15.9596399 C45.3379201,11.484585 44.1432487,9.76064998 41.2127076,9.76064998 C38.5900444,9.76064998 37.0103065,11.2642951 36.7401458,15.9596399" id="Fill-21" fill="#D2C4BC"></path>
                </g>
            </g>
        </g>
    </g>
</svg>