<?xml version="1.0" encoding="UTF-8"?>
<svg width="197px" height="197px" viewBox="0 0 197 197" version="1.1" xmlns="http://www.w3.org/2000/svg" xmlns:xlink="http://www.w3.org/1999/xlink">
    <!-- Generator: Sketch 53.2 (72643) - https://sketchapp.com -->
    <title>how we work logo</title>
    <desc>Created with Sketch.</desc>
    <g id="Page-1" stroke="none" stroke-width="1" fill="none" fill-rule="evenodd">
        <g id="CKD-Home-Philosophy" transform="translate(-848.000000, -1312.000000)">
            <g id="How-we-work" transform="translate(225.000000, 1272.000000)">
                <g id="how-we-work-logo" transform="translate(622.000000, 39.000000)">
                    <g transform="translate(36.000000, 34.000000)" stroke-linecap="round">
                        <path d="M80.5117117,65.754955 C80.5117117,75.009009 73.009009,82.5099099 63.754955,82.5099099 C54.5009009,82.5099099 47,75.009009 47,65.754955 C47,56.5009009 54.5009009,49 63.754955,49 C73.009009,49 80.5117117,56.5009009 80.5117117,65.754955 Z" id="Stroke-13-Copy" stroke="#F16521" stroke-width="3.663"></path>
                        <path d="M33.5117117,65.754955 C33.5117117,75.009009 26.009009,82.5099099 16.754955,82.5099099 C7.5009009,82.5099099 0,75.009009 0,65.754955 C0,56.5009009 7.5009009,49 16.754955,49 C26.009009,49 33.5117117,56.5009009 33.5117117,65.754955 Z" id="Stroke-13-Copy-2" stroke="#574F92" stroke-width="3.663"></path>
                        <path d="M128.511712,65.754955 C128.511712,75.009009 121.009009,82.5099099 111.754955,82.5099099 C102.500901,82.5099099 95,75.009009 95,65.754955 C95,56.5009009 102.500901,49 111.754955,49 C121.009009,49 128.511712,56.5009009 128.511712,65.754955 Z" id="Stroke-13-Copy-3" stroke="#574F92" stroke-width="3.663"></path>
                        <path d="M80.5117117,16.754955 C80.5117117,26.009009 73.009009,33.5099099 63.754955,33.5099099 C54.5009009,33.5099099 47,26.009009 47,16.754955 C47,7.5009009 54.5009009,0 63.754955,0 C73.009009,0 80.5117117,7.5009009 80.5117117,16.754955 Z" id="Stroke-13-Copy-4" stroke="#574F92" stroke-width="3.663"></path>
                        <path d="M80.5117117,114.754955 C80.5117117,124.009009 73.009009,131.50991 63.754955,131.50991 C54.5009009,131.50991 47,124.009009 47,114.754955 C47,105.500901 54.5009009,98 63.754955,98 C73.009009,98 80.5117117,105.500901 80.5117117,114.754955 Z" id="Stroke-13-Copy-5" stroke="#574F92" stroke-width="3.663"></path>
                        <path d="M56.5117117,108.754955 C56.5117117,118.009009 49.009009,125.50991 39.754955,125.50991 C30.5009009,125.50991 23,118.009009 23,108.754955 C23,99.5009009 30.5009009,92 39.754955,92 C49.009009,92 56.5117117,99.5009009 56.5117117,108.754955 Z" id="Stroke-13-Copy-6" stroke="#574F92" stroke-width="3.663"></path>
                        <path d="M104.511712,108.754955 C104.511712,118.009009 97.009009,125.50991 87.754955,125.50991 C78.5009009,125.50991 71,118.009009 71,108.754955 C71,99.5009009 78.5009009,92 87.754955,92 C97.009009,92 104.511712,99.5009009 104.511712,108.754955 Z" id="Stroke-13-Copy-8" stroke="#574F92" stroke-width="3.663"></path>
                        <path d="M104.511712,22.754955 C104.511712,32.009009 97.009009,39.5099099 87.754955,39.5099099 C78.5009009,39.5099099 71,32.009009 71,22.754955 C71,13.5009009 78.5009009,6 87.754955,6 C97.009009,6 104.511712,13.5009009 104.511712,22.754955 Z" id="Stroke-13-Copy-11" stroke="#574F92" stroke-width="3.663"></path>
                        <path d="M57.5117117,22.754955 C57.5117117,32.009009 50.009009,39.5099099 40.754955,39.5099099 C31.5009009,39.5099099 24,32.009009 24,22.754955 C24,13.5009009 31.5009009,6 40.754955,6 C50.009009,6 57.5117117,13.5009009 57.5117117,22.754955 Z" id="Stroke-13-Copy-13" stroke="#574F92" stroke-width="3.663"></path>
                        <path d="M42.5117117,88.754955 C42.5117117,98.009009 35.009009,105.50991 25.754955,105.50991 C16.5009009,105.50991 9,98.009009 9,88.754955 C9,79.5009009 16.5009009,72 25.754955,72 C35.009009,72 42.5117117,79.5009009 42.5117117,88.754955 Z" id="Stroke-13-Copy-7" stroke="#574F92" stroke-width="3.663"></path>
                        <path d="M119.511712,88.754955 C119.511712,98.009009 112.009009,105.50991 102.754955,105.50991 C93.5009009,105.50991 86,98.009009 86,88.754955 C86,79.5009009 93.5009009,72 102.754955,72 C112.009009,72 119.511712,79.5009009 119.511712,88.754955 Z" id="Stroke-13-Copy-9" stroke="#574F92" stroke-width="3.663"></path>
                        <path d="M119.511712,41.754955 C119.511712,51.009009 112.009009,58.5099099 102.754955,58.5099099 C93.5009009,58.5099099 86,51.009009 86,41.754955 C86,32.5009009 93.5009009,25 102.754955,25 C112.009009,25 119.511712,32.5009009 119.511712,41.754955 Z" id="Stroke-13-Copy-10" stroke="#574F92" stroke-width="3.663"></path>
                        <path d="M42.5117117,41.754955 C42.5117117,51.009009 35.009009,58.5099099 25.754955,58.5099099 C16.5009009,58.5099099 9,51.009009 9,41.754955 C9,32.5009009 16.5009009,25 25.754955,25 C35.009009,25 42.5117117,32.5009009 42.5117117,41.754955 Z" id="Stroke-13-Copy-12" stroke="#574F92" stroke-width="3.663"></path>
                    </g>
                    <path d="M99.6798103,5.15478462 C47.7533276,5.15478462 5.50856897,47.4658615 5.50856897,99.4738615 C5.50856897,151.483554 47.7533276,193.794631 99.6798103,193.794631 C151.606293,193.794631 193.851052,151.483554 193.851052,99.4738615 C193.851052,47.4658615 151.606293,5.15478462 99.6798103,5.15478462 M99.6798103,197.307862 C45.8186724,197.307862 1.99915517,153.419554 1.99915517,99.4738615 C1.99915517,45.5281692 45.8186724,1.64155385 99.6798103,1.64155385 C153.540948,1.64155385 197.360466,45.5281692 197.360466,99.4738615 C197.360466,153.419554 153.540948,197.307862 99.6798103,197.307862" id="Fill-1" stroke="#574F92" fill="#574F92"></path>
                </g>
            </g>
        </g>
    </g>
</svg>