<?xml version="1.0" encoding="UTF-8"?>
<svg width="197px" height="197px" viewBox="0 0 197 197" version="1.1" xmlns="http://www.w3.org/2000/svg" xmlns:xlink="http://www.w3.org/1999/xlink">
    <!-- Generator: Sketch 53.2 (72643) - https://sketchapp.com -->
    <title>workwithus</title>
    <desc>Created with Sketch.</desc>
    <g id="Page-1" stroke="none" stroke-width="1" fill="none" fill-rule="evenodd">
        <g id="CKD-Home-Philosophy" transform="translate(-848.000000, -2271.000000)">
            <g id="Work-With-Us" transform="translate(432.000000, 2251.000000)">
                <g id="workwithus" transform="translate(415.000000, 19.000000)">
                    <g id="Group-5" transform="translate(52.000000, 34.000000)">
                        <g id="Group">
                            <path d="M64.7277477,33.3284685 C64.7277477,42.5825225 57.2268468,50.0834234 47.9727928,50.0834234 C38.7169369,50.0834234 31.216036,42.5825225 31.216036,33.3284685 C31.216036,24.0744144 38.7169369,16.5735135 47.9727928,16.5735135 C57.2268468,16.5735135 64.7277477,24.0744144 64.7277477,33.3284685 Z" id="Stroke-3" stroke="#F16521" stroke-width="3.663" stroke-linecap="round"></path>
                            <path d="M26,127.874414 L69,127.874414" id="Path-2" stroke="#574F92" stroke-width="4" stroke-linecap="round" fill-rule="nonzero"></path>
                            <rect id="Rectangle-Copy" stroke="#574F92" stroke-width="5" fill-rule="nonzero" x="2.5" y="66.5" width="90" height="14" rx="7"></rect>
                            <rect id="Rectangle-Copy-3" stroke="#574F92" stroke-width="5" fill-rule="nonzero" x="42.5" y="83.5" width="10" height="43" rx="5"></rect>
                            <circle id="Oval" fill="#574F92" fill-rule="nonzero" cx="28" cy="133" r="4"></circle>
                            <circle id="Oval-Copy" fill="#574F92" fill-rule="nonzero" cx="68" cy="133" r="4"></circle>
                            <rect id="Rectangle-Copy-2" stroke="#574F92" stroke-width="5" fill-rule="nonzero" x="19.5" y="2.5" width="56" height="62" rx="8"></rect>
                        </g>
                    </g>
                    <path d="M99.6798103,5.15478462 C47.7533276,5.15478462 5.50856897,47.4658615 5.50856897,99.4738615 C5.50856897,151.483554 47.7533276,193.794631 99.6798103,193.794631 C151.606293,193.794631 193.851052,151.483554 193.851052,99.4738615 C193.851052,47.4658615 151.606293,5.15478462 99.6798103,5.15478462 M99.6798103,197.307862 C45.8186724,197.307862 1.99915517,153.419554 1.99915517,99.4738615 C1.99915517,45.5281692 45.8186724,1.64155385 99.6798103,1.64155385 C153.540948,1.64155385 197.360466,45.5281692 197.360466,99.4738615 C197.360466,153.419554 153.540948,197.307862 99.6798103,197.307862" id="Fill-1" stroke="#574F92" fill="#574F92"></path>
                </g>
            </g>
        </g>
    </g>
</svg>