<?xml version="1.0" encoding="UTF-8"?>
<svg width="197px" height="197px" viewBox="0 0 197 197" version="1.1" xmlns="http://www.w3.org/2000/svg" xmlns:xlink="http://www.w3.org/1999/xlink">
    <!-- Generator: Sketch 53.2 (72643) - https://sketchapp.com -->
    <title>the benefits</title>
    <desc>Created with Sketch.</desc>
    <g id="Page-1" stroke="none" stroke-width="1" fill="none" fill-rule="evenodd">
        <g id="CKD-Home-Philosophy" transform="translate(-564.000000, -1780.000000)">
            <g id="The-Benefits" transform="translate(563.000000, 1748.000000)">
                <g id="the-benefits" transform="translate(0.000000, 31.000000)">
                    <g id="Group-39" transform="translate(84.000000, 24.000000)" stroke-linecap="round">
                        <path d="M33.5117117,23.754955 C33.5117117,33.009009 26.009009,40.5099099 16.754955,40.5099099 C7.5009009,40.5099099 0,33.009009 0,23.754955 C0,14.5009009 7.5009009,7 16.754955,7 C26.009009,7 33.5117117,14.5009009 33.5117117,23.754955 Z" id="Stroke-3" stroke="#574F92" stroke-width="3.663"></path>
                        <path d="M33.5117117,78.754955 C33.5117117,88.009009 26.009009,95.5099099 16.754955,95.5099099 C7.5009009,95.5099099 0,88.009009 0,78.754955 C0,69.5009009 7.5009009,62 16.754955,62 C26.009009,62 33.5117117,69.5009009 33.5117117,78.754955 Z" id="Stroke-3-Copy" stroke="#574F92" stroke-width="3.663"></path>
                        <path d="M33.5117117,132.754955 C33.5117117,142.009009 26.009009,149.50991 16.754955,149.50991 C7.5009009,149.50991 0,142.009009 0,132.754955 C0,123.500901 7.5009009,116 16.754955,116 C26.009009,116 33.5117117,123.500901 33.5117117,132.754955 Z" id="Stroke-3-Copy-2" stroke="#F16521" stroke-width="3.663"></path>
                        <path d="M16,31.4796396 L9,23.754955" id="Stroke-23" stroke="#574F92" stroke-width="4.922"></path>
                        <path d="M16,83.4796396 L9,75.754955" id="Stroke-23-Copy" stroke="#574F92" stroke-width="4.922"></path>
                        <path d="M16,136.47964 L9,128.754955" id="Stroke-23-Copy-2" stroke="#574F92" stroke-width="4.922"></path>
                        <path d="M40,0 L17.4115315,32" id="Stroke-37" stroke="#574F92" stroke-width="4.922"></path>
                        <path d="M40,52 L17.4115315,84" id="Stroke-37-Copy" stroke="#574F92" stroke-width="4.922"></path>
                        <path d="M40,105 L17.4115315,137" id="Stroke-37-Copy-2" stroke="#574F92" stroke-width="4.922"></path>
                    </g>
                    <path d="M99.6798103,5.15478462 C47.7533276,5.15478462 5.50856897,47.4658615 5.50856897,99.4738615 C5.50856897,151.483554 47.7533276,193.794631 99.6798103,193.794631 C151.606293,193.794631 193.851052,151.483554 193.851052,99.4738615 C193.851052,47.4658615 151.606293,5.15478462 99.6798103,5.15478462 M99.6798103,197.307862 C45.8186724,197.307862 1.99915517,153.419554 1.99915517,99.4738615 C1.99915517,45.5281692 45.8186724,1.64155385 99.6798103,1.64155385 C153.540948,1.64155385 197.360466,45.5281692 197.360466,99.4738615 C197.360466,153.419554 153.540948,197.307862 99.6798103,197.307862" id="Fill-1" stroke="#574F92" fill="#574F92"></path>
                </g>
            </g>
        </g>
    </g>
</svg>