<?xml version="1.0" encoding="UTF-8"?>
<svg width="196px" height="196px" viewBox="0 0 196 196" version="1.1" xmlns="http://www.w3.org/2000/svg" xmlns:xlink="http://www.w3.org/1999/xlink">
    <!-- Generator: Sketch 53.2 (72643) - https://sketchapp.com -->
    <title>Group 5</title>
    <desc>Created with Sketch.</desc>
    <g id="Page-1" stroke="none" stroke-width="1" fill="none" fill-rule="evenodd">
        <g id="CKD-Home-Philosophy" transform="translate(-568.000000, -839.000000)">
            <g id="Company-Background" transform="translate(571.000000, 793.000000)">
                <g id="Group-5" transform="translate(0.000000, 49.000000)">
                    <g id="Group-6">
                        <g id="Group-15" stroke="#574F92" stroke-width="6">
                            <path d="M189.801368,94.9646154 C189.801368,147.342393 147.341538,189.800513 94.9654701,189.800513 C42.5876923,189.800513 0.127863248,147.342393 0.127863248,94.9646154 C0.127863248,42.588547 42.5876923,0.128717949 94.9654701,0.128717949 C147.341538,0.128717949 189.801368,42.588547 189.801368,94.9646154 Z" id="Stroke-1"></path>
                        </g>
                        <g id="Group-2" transform="translate(25.500000, 61.000000)" stroke="#574F92">
                            <path d="M39.7931624,15.3957265 C39.7931624,23.8990549 32.6769231,30.791453 23.8974359,30.791453 C15.1179487,30.791453 8,23.8990549 8,15.3957265 C8,6.89239804 15.1179487,-3.25073302e-13 23.8974359,-3.25073302e-13 C32.6769231,-3.25073302e-13 39.7931624,6.89239804 39.7931624,15.3957265 Z" id="Stroke-11" stroke-width="3.663" stroke-linecap="round"></path>
                            <rect id="Rectangle" stroke-width="4" fill-rule="nonzero" x="2" y="42" width="43" height="39" rx="8"></rect>
                        </g>
                        <path d="M111.793162,47.3957265 C111.793162,55.8990549 104.676923,62.791453 95.8974359,62.791453 C87.1179487,62.791453 80,55.8990549 80,47.3957265 C80,38.892398 87.1179487,32 95.8974359,32 C104.676923,32 111.793162,38.892398 111.793162,47.3957265 Z" id="Stroke-11-Copy" stroke="#F16521" stroke-width="3.663" stroke-linecap="round"></path>
                        <g id="Group-4" transform="translate(117.293162, 61.000000)" stroke="#574F92">
                            <path d="M40,15.3957265 C40,23.8990549 32.8837607,30.791453 24.1042735,30.791453 C15.3247863,30.791453 8.20683761,23.8990549 8.20683761,15.3957265 C8.20683761,6.89239804 15.3247863,-3.25073302e-13 24.1042735,-3.25073302e-13 C32.8837607,-3.25073302e-13 40,6.89239804 40,15.3957265 Z" id="Stroke-11-Copy-2" stroke-width="3.663" stroke-linecap="round"></path>
                            <rect id="Rectangle-Copy-5" stroke-width="4" fill-rule="nonzero" x="2.20683761" y="42" width="43" height="39" rx="8"></rect>
                        </g>
                        <rect id="Rectangle-Copy-4" stroke="#574F92" stroke-width="4" fill-rule="nonzero" x="74" y="74" width="43" height="39" rx="8"></rect>
                    </g>
                </g>
            </g>
        </g>
    </g>
</svg>