<?xml version="1.0" encoding="UTF-8"?>
<svg width="197px" height="197px" viewBox="0 0 197 197" version="1.1" xmlns="http://www.w3.org/2000/svg" xmlns:xlink="http://www.w3.org/1999/xlink">
    <!-- Generator: Sketch 53.2 (72643) - https://sketchapp.com -->
    <title>Gears</title>
    <desc>Created with Sketch.</desc>
    <defs>
        <polygon id="path-1" points="0 0.65451453 199.346552 0.65451453 199.346552 200.273504 0 200.273504"></polygon>
    </defs>
    <g id="Page-1" stroke="none" stroke-width="1" fill="none" fill-rule="evenodd">
        <g id="CKD-Home-Process" transform="translate(-561.000000, -1718.000000)">
            <g id="Collaborative-Build" transform="translate(557.000000, 1668.000000)">
                <g id="Gears" transform="translate(0.000000, 45.000000)">
                    <g id="Group-8" transform="translate(3.000000, 3.000000)">
                        <path d="M118.500865,144.18976 C102.659265,144.18976 89.7718574,131.302113 89.7718574,115.460218 C89.7718574,99.6183232 102.659265,86.7306762 118.500865,86.7306762 C134.340735,86.7306762 147.228143,99.6183232 147.228143,115.460218 C147.228143,131.302113 134.340735,144.18976 118.500865,144.18976 M163.225409,113.727105 L150.727166,113.727105 C150.324164,106.156413 147.299057,99.2706628 142.546058,93.9606271 L151.380963,85.1290173 C152.072811,84.4354263 152.072811,83.3128813 151.380963,82.6192903 C150.687385,81.927429 149.564861,81.927429 148.873012,82.6192903 L140.041567,91.4509002 C134.736819,86.6857053 127.847738,83.6467044 120.271997,83.2350469 L120.271997,70.7746243 C120.271997,69.7939109 119.478101,69 118.500865,69 C117.521899,69 116.728003,69.7939109 116.728003,70.7746243 L116.728003,83.2350469 C109.152262,83.6467044 102.264911,86.6839756 96.9584333,91.4509002 L88.1269877,82.6192903 C87.4368688,81.927429 86.3126151,81.927429 85.6207666,82.6192903 C84.9289181,83.3128813 84.9289181,84.4354263 85.6207666,85.1290173 L94.4539419,93.9606271 C89.7026725,99.2706628 86.6758355,106.156413 86.2728338,113.727105 L73.7745913,113.727105 C72.7956257,113.727105 72,114.522746 72,115.5 C72,116.478984 72.7956257,117.272895 73.7745913,117.272895 L86.2780227,117.272895 C86.6983206,124.834939 89.7338057,131.705122 94.4902639,137.00305 L85.6207666,145.872712 C84.9289181,146.564574 84.9289181,147.687119 85.6207666,148.38071 C85.9666908,148.72664 86.4198516,148.901335 86.874742,148.901335 C87.3296323,148.901335 87.7827931,148.72664 88.1269877,148.38071 L97.0016738,139.507588 C102.302963,144.250298 109.171288,147.273732 116.728003,147.685389 L116.728003,160.225376 C116.728003,161.206089 117.521899,162 118.500865,162 C119.478101,162 120.271997,161.206089 120.271997,160.225376 L120.271997,147.685389 C127.830441,147.273732 134.698767,144.250298 140.000056,139.507588 L148.873012,148.38071 C149.218937,148.72664 149.670368,148.901335 150.125258,148.901335 C150.580148,148.901335 151.035039,148.72664 151.380963,148.38071 C152.072811,147.687119 152.072811,146.564574 151.380963,145.872712 L142.509736,137.00305 C147.266194,131.705122 150.301679,124.834939 150.721977,117.272895 L163.225409,117.272895 C164.204374,117.272895 165,116.478984 165,115.5 C165,114.522746 164.204374,113.727105 163.225409,113.727105" id="Fill-1" fill="#574F92"></path>
                        <path d="M59.4991362,88.8895325 C51.5539785,88.8895325 45.0893601,82.4246951 45.0893601,74.4775407 C45.0893601,66.5321138 51.5539785,60.0672764 59.4991362,60.0672764 C67.4460215,60.0672764 73.9106399,66.5321138 73.9106399,74.4775407 C73.9106399,82.4246951 67.4460215,88.8895325 59.4991362,88.8895325 M83.2274991,72.7291667 L77.367535,72.7291667 C77.0151079,69.1028455 75.5794858,65.7892276 73.3889096,63.1148374 L77.5316554,58.9736789 C78.2226889,58.2808943 78.2226889,57.1613821 77.5316554,56.4685976 C76.8388943,55.7775407 75.7159649,55.7775407 75.0249314,56.4685976 L70.8856407,60.6080285 C68.2147962,58.4104675 64.899563,56.9696138 61.2699096,56.6119919 L61.2699096,50.772561 C61.2699096,49.7929878 60.4769486,49 59.4991362,49 C58.5230514,49 57.7300904,49.7929878 57.7300904,50.772561 L57.7300904,56.6119919 C54.100437,56.9696138 50.7852038,58.4104675 48.1126317,60.6080285 L43.9750686,56.4685976 C43.2823075,55.7775407 42.1611057,55.7775407 41.4683446,56.4685976 C40.7773111,57.1613821 40.7773111,58.2808943 41.4683446,58.9736789 L45.6110904,63.1148374 C43.4205142,65.7875 41.9848921,69.1011179 41.632465,72.7291667 L35.7725009,72.7291667 C34.7929609,72.7291667 34,73.5204268 34,74.5 C34,75.4778455 34.7929609,76.2708333 35.7725009,76.2708333 L41.6359202,76.2708333 C41.9969852,79.8919715 43.4360625,83.1986789 45.6300938,85.8644309 L41.4683446,90.0245935 C40.7773111,90.717378 40.7773111,91.8386179 41.4683446,92.5296748 C41.8155889,92.8769309 42.2682158,93.0496951 42.7208428,93.0496951 C43.1751973,93.0496951 43.6278243,92.8769309 43.9750686,92.5296748 L48.1385454,88.3677846 C50.8059348,90.553252 54.1108025,91.9889228 57.7300904,92.3448171 L57.7300904,98.227439 C57.7300904,99.2070122 58.5230514,100 59.4991362,100 C60.4769486,100 61.2699096,99.2070122 61.2699096,98.227439 L61.2699096,92.3448171 C64.8891975,91.9889228 68.1940652,90.553252 70.8614546,88.3677846 L75.0249314,92.5296748 C75.3721757,92.8769309 75.8230751,93.0496951 76.2774296,93.0496951 C76.7317842,93.0496951 77.1844111,92.8769309 77.5316554,92.5296748 C78.2226889,91.8386179 78.2226889,90.717378 77.5316554,90.0245935 L73.3681786,85.8644309 C75.56221,83.1986789 77.0030148,79.8919715 77.3640798,76.2708333 L83.2274991,76.2708333 C84.2053115,76.2708333 85,75.4778455 85,74.5 C85,73.5204268 84.2053115,72.7291667 83.2274991,72.7291667" id="Fill-3" fill="#F16521"></path>
                        <g id="Group-7">
                            <mask id="mask-2" fill="white">
                                <use xlink:href="#path-1"></use>
                            </mask>
                            <g id="Clip-6"></g>
                        </g>
                    </g>
                    <path d="M102.67981,9.15478462 C50.7533276,9.15478462 8.50856897,51.4658615 8.50856897,103.473862 C8.50856897,155.483554 50.7533276,197.794631 102.67981,197.794631 C154.606293,197.794631 196.851052,155.483554 196.851052,103.473862 C196.851052,51.4658615 154.606293,9.15478462 102.67981,9.15478462 M102.67981,201.307862 C48.8186724,201.307862 4.99915517,157.419554 4.99915517,103.473862 C4.99915517,49.5281692 48.8186724,5.64155385 102.67981,5.64155385 C156.540948,5.64155385 200.360466,49.5281692 200.360466,103.473862 C200.360466,157.419554 156.540948,201.307862 102.67981,201.307862" id="Fill-1" stroke="#574F92" fill="#574F92"></path>
                </g>
            </g>
        </g>
    </g>
</svg>