<?xml version="1.0" encoding="UTF-8"?>
<svg width="197px" height="198px" viewBox="0 0 197 198" version="1.1" xmlns="http://www.w3.org/2000/svg" xmlns:xlink="http://www.w3.org/1999/xlink">
    <!-- Generator: Sketch 53.2 (72643) - https://sketchapp.com -->
    <title>launch-evolve</title>
    <desc>Created with Sketch.</desc>
    <g id="Page-1" stroke="none" stroke-width="1" fill="none" fill-rule="evenodd">
        <g id="CKD-Home-Process" transform="translate(-852.000000, -2130.000000)">
            <g id="Launch-&amp;-Evolve" transform="translate(239.000000, 2095.000000)">
                <g id="launch-evolve" transform="translate(612.000000, 34.000000)">
                    <g id="Group-11" transform="translate(2.000000, 2.000000)">
                        <path d="M114.511712,97.754955 C114.511712,107.009009 107.010811,114.50991 97.7567568,114.50991 C88.5009009,114.50991 81,107.009009 81,97.754955 C81,88.5009009 88.5009009,81 97.7567568,81 C107.010811,81 114.511712,88.5009009 114.511712,97.754955 Z" id="Stroke-3" stroke="#F16521" stroke-width="3.663" stroke-linecap="round"></path>
                        <path d="M134.821622,97.4108108 C134.821622,118.072072 118.072072,134.821622 97.4108108,134.821622 C76.7495495,134.821622 60,118.072072 60,97.4108108 C60,76.7495495 76.7495495,60 97.4108108,60 C118.072072,60 134.821622,76.7495495 134.821622,97.4108108 Z" id="Stroke-5" stroke="#574F92" stroke-width="4.922" stroke-linecap="round"></path>
                        <path d="M154.093694,97.5459459 C154.093694,128.774775 128.776577,154.091892 97.5477477,154.091892 C66.3171171,154.091892 41,128.774775 41,97.5459459 C41,66.3153153 66.3171171,41 97.5477477,41 C128.776577,41 154.093694,66.3153153 154.093694,97.5459459 Z" id="Stroke-7" stroke="#574F92" stroke-width="4.922" stroke-linecap="round"></path>
                        <path d="M176.072072,98.036036 C176.072072,141.133333 141.133333,176.072072 98.036036,176.072072 C54.9369369,176.072072 20,141.133333 20,98.036036 C20,54.9387387 54.9369369,20 98.036036,20 C141.133333,20 176.072072,54.9387387 176.072072,98.036036 Z" id="Stroke-9" stroke="#574F92" stroke-width="4.922" stroke-linecap="round"></path>
                        <path d="M97.6806552,3.51323077 C45.7541724,3.51323077 3.50941379,45.8243077 3.50941379,97.8323077 C3.50941379,149.842 45.7541724,192.153077 97.6806552,192.153077 C149.607138,192.153077 191.851897,149.842 191.851897,97.8323077 C191.851897,45.8243077 149.607138,3.51323077 97.6806552,3.51323077 M97.6806552,195.666308 C43.8195172,195.666308 0,151.778 0,97.8323077 C0,43.8866154 43.8195172,0 97.6806552,0 C151.541793,0 195.36131,43.8866154 195.36131,97.8323077 C195.36131,151.778 151.541793,195.666308 97.6806552,195.666308" id="Fill-1" stroke="#574F92" fill="#574F92"></path>
                    </g>
                </g>
            </g>
        </g>
    </g>
</svg>