<?xml version="1.0" encoding="UTF-8"?>
<svg width="197px" height="197px" viewBox="0 0 197 197" version="1.1" xmlns="http://www.w3.org/2000/svg" xmlns:xlink="http://www.w3.org/1999/xlink">
    <!-- Generator: Sketch 53.2 (72643) - https://sketchapp.com -->
    <title>exploration</title>
    <desc>Created with Sketch.</desc>
    <g id="Page-1" stroke="none" stroke-width="1" fill="none" fill-rule="evenodd">
        <g id="CKD-Home-Process" transform="translate(-559.000000, -840.000000)">
            <g id="Project-Exploration" transform="translate(558.000000, 800.000000)">
                <g id="exploration" transform="translate(0.000000, 39.000000)">
                    <g id="Group-16" transform="translate(1.000000, 1.000000)">
                        <path d="M98.6798103,4.15478462 C46.7533276,4.15478462 4.50856897,46.4658615 4.50856897,98.4738615 C4.50856897,150.483554 46.7533276,192.794631 98.6798103,192.794631 C150.606293,192.794631 192.851052,150.483554 192.851052,98.4738615 C192.851052,46.4658615 150.606293,4.15478462 98.6798103,4.15478462 M98.6798103,196.307862 C44.8186724,196.307862 0.999155172,152.419554 0.999155172,98.4738615 C0.999155172,44.5281692 44.8186724,0.641553846 98.6798103,0.641553846 C152.540948,0.641553846 196.360466,44.5281692 196.360466,98.4738615 C196.360466,152.419554 152.540948,196.307862 98.6798103,196.307862" id="Fill-1" stroke="#574F92" fill="#574F92"></path>
                        <path d="M71,124.999158 C71,133.836147 63.835218,141 54.9991585,141 C46.1630989,141 39,133.836147 39,124.999158 C39,116.162169 46.1630989,109 54.9991585,109 C63.835218,109 71,116.162169 71,124.999158 Z" id="Stroke-4" stroke="#F16521" stroke-width="3" stroke-linecap="round"></path>
                        <path d="M164,125 C164,138.254996 153.253681,149 139.999153,149 C126.744625,149 116,138.254996 116,125 C116,111.745004 126.744625,101 139.999153,101 C153.253681,101 164,111.745004 164,125 Z" id="Stroke-6" stroke="#574F92" stroke-width="3.612" stroke-linecap="round"></path>
                        <path d="M164,119.269699 L143.67058,52.7160859 C141.752935,44.84548 134.6086,39 126.088194,39 C116.098048,39 108,47.0379577 108,56.9539744 L116.506782,127" id="Stroke-8" stroke="#574F92" stroke-width="3.612" stroke-linecap="round"></path>
                        <path d="M31,125 C31,138.254996 41.7463192,149 55.0008474,149 C68.2553755,149 79,138.254996 79,125 C79,111.745004 68.2553755,101 55.0008474,101 C41.7463192,101 31,111.745004 31,125 Z" id="Stroke-10" stroke="#574F92" stroke-width="3.612" stroke-linecap="round"></path>
                        <path d="M32,119.269699 L52.3294204,52.7160859 C54.2470653,44.84548 61.3931026,39 69.9118059,39 C79.9019524,39 88,47.0379577 88,56.9539744 L79.4932182,127" id="Stroke-12" stroke="#574F92" stroke-width="3.612" stroke-linecap="round"></path>
                        <polygon id="Stroke-14" stroke="#574F92" stroke-width="3.612" stroke-linecap="round" points="112 91 84 91 86.3386421 71 109.815591 71"></polygon>
                    </g>
                </g>
            </g>
        </g>
    </g>
</svg>